<mxfile modified="2024-03-12T21:10:02.792Z" host="app.diagrams.net" agent="Mozilla/5.0 (X11; Linux x86_64) AppleWebKit/537.36 (KHTML, like Gecko) Chrome/120.0.0.0 Safari/537.36" etag="O8DC4C7v4wiNSev1vT6b" version="24.0.5" type="github">
  <diagram id="Ht1M8jgEwFfnCIfOTk4-" name="Page-1">
    <mxGraphModel dx="2800" dy="1727" grid="1" gridSize="10" guides="1" tooltips="1" connect="1" arrows="1" fold="1" page="1" pageScale="1" pageWidth="1169" pageHeight="827" math="0" shadow="0">
      <root>
        <mxCell id="0" />
        <mxCell id="1" parent="0" />
        <mxCell id="UEzPUAAOIrF-is8g5C7q-175" value="AWS Cloud" style="points=[[0,0],[0.25,0],[0.5,0],[0.75,0],[1,0],[1,0.25],[1,0.5],[1,0.75],[1,1],[0.75,1],[0.5,1],[0.25,1],[0,1],[0,0.75],[0,0.5],[0,0.25]];outlineConnect=0;gradientColor=none;html=1;whiteSpace=wrap;fontSize=12;fontStyle=0;shape=mxgraph.aws4.group;grIcon=mxgraph.aws4.group_aws_cloud_alt;strokeColor=#232F3E;fillColor=none;verticalAlign=top;align=left;spacingLeft=30;fontColor=#232F3E;dashed=0;labelBackgroundColor=#ffffff;container=1;pointerEvents=0;collapsible=0;recursiveResize=0;" parent="1" vertex="1">
          <mxGeometry x="219" y="-789.5" width="2791" height="410" as="geometry" />
        </mxCell>
        <mxCell id="UEzPUAAOIrF-is8g5C7q-195" style="edgeStyle=orthogonalEdgeStyle;rounded=0;orthogonalLoop=1;jettySize=auto;html=1;startArrow=none;startFill=0;endArrow=open;endFill=0;strokeColor=#808080;strokeWidth=2;" parent="1" source="UEzPUAAOIrF-is8g5C7q-177" target="UEzPUAAOIrF-is8g5C7q-178" edge="1">
          <mxGeometry relative="1" as="geometry" />
        </mxCell>
        <mxCell id="UEzPUAAOIrF-is8g5C7q-196" style="edgeStyle=orthogonalEdgeStyle;rounded=0;orthogonalLoop=1;jettySize=auto;html=1;startArrow=none;startFill=0;endArrow=open;endFill=0;strokeColor=#808080;strokeWidth=2;" parent="1" source="UEzPUAAOIrF-is8g5C7q-178" target="UEzPUAAOIrF-is8g5C7q-179" edge="1">
          <mxGeometry relative="1" as="geometry" />
        </mxCell>
        <mxCell id="UEzPUAAOIrF-is8g5C7q-198" style="edgeStyle=orthogonalEdgeStyle;rounded=0;orthogonalLoop=1;jettySize=auto;html=1;startArrow=none;startFill=0;endArrow=open;endFill=0;strokeColor=#808080;strokeWidth=2;" parent="1" source="UEzPUAAOIrF-is8g5C7q-178" target="UEzPUAAOIrF-is8g5C7q-181" edge="1">
          <mxGeometry relative="1" as="geometry">
            <Array as="points">
              <mxPoint x="355" y="-689.5" />
            </Array>
          </mxGeometry>
        </mxCell>
        <mxCell id="UEzPUAAOIrF-is8g5C7q-199" style="edgeStyle=orthogonalEdgeStyle;rounded=0;orthogonalLoop=1;jettySize=auto;html=1;startArrow=none;startFill=0;endArrow=open;endFill=0;strokeColor=#808080;strokeWidth=2;" parent="1" source="UEzPUAAOIrF-is8g5C7q-178" target="UEzPUAAOIrF-is8g5C7q-182" edge="1">
          <mxGeometry relative="1" as="geometry" />
        </mxCell>
        <mxCell id="UEzPUAAOIrF-is8g5C7q-200" style="edgeStyle=orthogonalEdgeStyle;rounded=0;orthogonalLoop=1;jettySize=auto;html=1;startArrow=none;startFill=0;endArrow=open;endFill=0;strokeColor=#808080;strokeWidth=2;" parent="1" source="UEzPUAAOIrF-is8g5C7q-178" target="UEzPUAAOIrF-is8g5C7q-183" edge="1">
          <mxGeometry relative="1" as="geometry">
            <Array as="points">
              <mxPoint x="576" y="-689.5" />
            </Array>
          </mxGeometry>
        </mxCell>
        <mxCell id="UEzPUAAOIrF-is8g5C7q-197" style="edgeStyle=orthogonalEdgeStyle;rounded=0;orthogonalLoop=1;jettySize=auto;html=1;startArrow=none;startFill=0;endArrow=open;endFill=0;strokeColor=#808080;strokeWidth=2;" parent="1" source="UEzPUAAOIrF-is8g5C7q-179" target="UEzPUAAOIrF-is8g5C7q-180" edge="1">
          <mxGeometry relative="1" as="geometry" />
        </mxCell>
        <mxCell id="UEzPUAAOIrF-is8g5C7q-201" style="edgeStyle=orthogonalEdgeStyle;rounded=0;orthogonalLoop=1;jettySize=auto;html=1;startArrow=none;startFill=0;endArrow=open;endFill=0;strokeColor=#808080;strokeWidth=2;" parent="1" source="UEzPUAAOIrF-is8g5C7q-179" target="UEzPUAAOIrF-is8g5C7q-184" edge="1">
          <mxGeometry relative="1" as="geometry" />
        </mxCell>
        <mxCell id="UEzPUAAOIrF-is8g5C7q-177" value="Amazon S3&lt;br&gt;Bucket&lt;br&gt;" style="outlineConnect=0;fontColor=#232F3E;gradientColor=none;fillColor=#277116;strokeColor=none;dashed=0;verticalLabelPosition=bottom;verticalAlign=top;align=center;html=1;fontSize=12;fontStyle=0;aspect=fixed;pointerEvents=1;shape=mxgraph.aws4.bucket;labelBackgroundColor=#ffffff;" parent="1" vertex="1">
          <mxGeometry x="249" y="-749.5" width="75" height="78" as="geometry" />
        </mxCell>
        <mxCell id="UEzPUAAOIrF-is8g5C7q-178" value="AWS&lt;br&gt;CodePipeline&lt;br&gt;" style="outlineConnect=0;fontColor=#232F3E;gradientColor=#4D72F3;gradientDirection=north;fillColor=#3334B9;strokeColor=#ffffff;dashed=0;verticalLabelPosition=bottom;verticalAlign=top;align=center;html=1;fontSize=12;fontStyle=0;aspect=fixed;shape=mxgraph.aws4.resourceIcon;resIcon=mxgraph.aws4.codepipeline;labelBackgroundColor=#ffffff;" parent="1" vertex="1">
          <mxGeometry x="429" y="-749.5" width="78" height="78" as="geometry" />
        </mxCell>
        <mxCell id="UEzPUAAOIrF-is8g5C7q-179" value="AWS&lt;br&gt;Organizations&lt;br&gt;" style="outlineConnect=0;fontColor=#232F3E;gradientColor=#F54749;gradientDirection=north;fillColor=#C7131F;strokeColor=#ffffff;dashed=0;verticalLabelPosition=bottom;verticalAlign=top;align=center;html=1;fontSize=12;fontStyle=0;aspect=fixed;shape=mxgraph.aws4.resourceIcon;resIcon=mxgraph.aws4.organizations;labelBackgroundColor=#ffffff;" parent="1" vertex="1">
          <mxGeometry x="700" y="-749.5" width="78" height="78" as="geometry" />
        </mxCell>
        <mxCell id="UEzPUAAOIrF-is8g5C7q-180" value="AWS Single&lt;br&gt;Sign-on&lt;br&gt;" style="outlineConnect=0;fontColor=#232F3E;gradientColor=#F34482;gradientDirection=north;fillColor=#BC1356;strokeColor=#ffffff;dashed=0;verticalLabelPosition=bottom;verticalAlign=top;align=center;html=1;fontSize=12;fontStyle=0;aspect=fixed;shape=mxgraph.aws4.resourceIcon;resIcon=mxgraph.aws4.cloudwatch;labelBackgroundColor=#ffffff;" parent="1" vertex="1">
          <mxGeometry x="856" y="-749.5" width="78" height="78" as="geometry" />
        </mxCell>
        <mxCell id="UEzPUAAOIrF-is8g5C7q-181" value="Account&lt;br&gt;Baseline&lt;br&gt;" style="outlineConnect=0;fontColor=#232F3E;gradientColor=#F34482;gradientDirection=north;fillColor=#BC1356;strokeColor=#ffffff;dashed=0;verticalLabelPosition=bottom;verticalAlign=top;align=center;html=1;fontSize=12;fontStyle=0;aspect=fixed;shape=mxgraph.aws4.resourceIcon;resIcon=mxgraph.aws4.cloudformation;labelBackgroundColor=#ffffff;" parent="1" vertex="1">
          <mxGeometry x="316" y="-569.5" width="78" height="78" as="geometry" />
        </mxCell>
        <mxCell id="UEzPUAAOIrF-is8g5C7q-182" value="AWS Service&lt;br&gt;Catalog&lt;br&gt;" style="outlineConnect=0;fontColor=#232F3E;gradientColor=#F34482;gradientDirection=north;fillColor=#BC1356;strokeColor=#ffffff;dashed=0;verticalLabelPosition=bottom;verticalAlign=top;align=center;html=1;fontSize=12;fontStyle=0;aspect=fixed;shape=mxgraph.aws4.resourceIcon;resIcon=mxgraph.aws4.service_catalog;labelBackgroundColor=#ffffff;" parent="1" vertex="1">
          <mxGeometry x="429" y="-569.5" width="78" height="78" as="geometry" />
        </mxCell>
        <mxCell id="UEzPUAAOIrF-is8g5C7q-183" value="AWS&lt;br&gt;Parameter&lt;br&gt;Store&lt;br&gt;" style="outlineConnect=0;fontColor=#232F3E;gradientColor=none;fillColor=#BC1356;strokeColor=none;dashed=0;verticalLabelPosition=bottom;verticalAlign=top;align=center;html=1;fontSize=12;fontStyle=0;aspect=fixed;pointerEvents=1;shape=mxgraph.aws4.parameter_store;labelBackgroundColor=#ffffff;" parent="1" vertex="1">
          <mxGeometry x="539" y="-569.5" width="75" height="78" as="geometry" />
        </mxCell>
        <mxCell id="UEzPUAAOIrF-is8g5C7q-184" value="Core OU" style="outlineConnect=0;fontColor=#232F3E;gradientColor=none;fillColor=#BC1356;strokeColor=none;dashed=0;verticalLabelPosition=bottom;verticalAlign=top;align=center;html=1;fontSize=12;fontStyle=0;aspect=fixed;pointerEvents=1;shape=mxgraph.aws4.resources;labelBackgroundColor=#ffffff;" parent="1" vertex="1">
          <mxGeometry x="705" y="-559.5" width="68" height="78" as="geometry" />
        </mxCell>
        <mxCell id="ygvrbI2mlTMdxTGw6j8e-2" value="" style="rounded=1;whiteSpace=wrap;html=1;fillColor=#1ba1e2;strokeColor=#006EAF;fontColor=#ffffff;" vertex="1" parent="1">
          <mxGeometry x="-350" y="-749.5" width="390" height="229.5" as="geometry" />
        </mxCell>
        <mxCell id="ygvrbI2mlTMdxTGw6j8e-3" value="" style="shape=image;verticalLabelPosition=bottom;labelBackgroundColor=default;verticalAlign=top;aspect=fixed;imageAspect=0;image=data:image/png,iVBORw0KGgoAAAANSUhEUgAAAb0AAABuCAYAAACz881xAAAKN2lDQ1BzUkdCIElFQzYxOTY2LTIuMQAAeJydlndUU9kWh8+9N71QkhCKlNBraFICSA29SJEuKjEJEErAkAAiNkRUcERRkaYIMijggKNDkbEiioUBUbHrBBlE1HFwFBuWSWStGd+8ee/Nm98f935rn73P3Wfvfda6AJD8gwXCTFgJgAyhWBTh58WIjYtnYAcBDPAAA2wA4HCzs0IW+EYCmQJ82IxsmRP4F726DiD5+yrTP4zBAP+flLlZIjEAUJiM5/L42VwZF8k4PVecJbdPyZi2NE3OMErOIlmCMlaTc/IsW3z2mWUPOfMyhDwZy3PO4mXw5Nwn4405Er6MkWAZF+cI+LkyviZjg3RJhkDGb+SxGXxONgAoktwu5nNTZGwtY5IoMoIt43kA4EjJX/DSL1jMzxPLD8XOzFouEiSniBkmXFOGjZMTi+HPz03ni8XMMA43jSPiMdiZGVkc4XIAZs/8WRR5bRmyIjvYODk4MG0tbb4o1H9d/JuS93aWXoR/7hlEH/jD9ld+mQ0AsKZltdn6h21pFQBd6wFQu/2HzWAvAIqyvnUOfXEeunxeUsTiLGcrq9zcXEsBn2spL+jv+p8Of0NffM9Svt3v5WF485M4knQxQ143bmZ6pkTEyM7icPkM5p+H+B8H/nUeFhH8JL6IL5RFRMumTCBMlrVbyBOIBZlChkD4n5r4D8P+pNm5lona+BHQllgCpSEaQH4eACgqESAJe2Qr0O99C8ZHA/nNi9GZmJ37z4L+fVe4TP7IFiR/jmNHRDK4ElHO7Jr8WgI0IABFQAPqQBvoAxPABLbAEbgAD+ADAkEoiARxYDHgghSQAUQgFxSAtaAYlIKtYCeoBnWgETSDNnAYdIFj4DQ4By6By2AE3AFSMA6egCnwCsxAEISFyBAVUod0IEPIHLKFWJAb5AMFQxFQHJQIJUNCSAIVQOugUqgcqobqoWboW+godBq6AA1Dt6BRaBL6FXoHIzAJpsFasBFsBbNgTzgIjoQXwcnwMjgfLoK3wJVwA3wQ7oRPw5fgEVgKP4GnEYAQETqiizARFsJGQpF4JAkRIauQEqQCaUDakB6kH7mKSJGnyFsUBkVFMVBMlAvKHxWF4qKWoVahNqOqUQdQnag+1FXUKGoK9RFNRmuizdHO6AB0LDoZnYsuRlegm9Ad6LPoEfQ4+hUGg6FjjDGOGH9MHCYVswKzGbMb0445hRnGjGGmsVisOtYc64oNxXKwYmwxtgp7EHsSewU7jn2DI+J0cLY4X1w8TogrxFXgWnAncFdwE7gZvBLeEO+MD8Xz8MvxZfhGfA9+CD+OnyEoE4wJroRIQiphLaGS0EY4S7hLeEEkEvWITsRwooC4hlhJPEQ8TxwlviVRSGYkNimBJCFtIe0nnSLdIr0gk8lGZA9yPFlM3kJuJp8h3ye/UaAqWCoEKPAUVivUKHQqXFF4pohXNFT0VFysmK9YoXhEcUjxqRJeyUiJrcRRWqVUo3RU6YbStDJV2UY5VDlDebNyi/IF5UcULMWI4kPhUYoo+yhnKGNUhKpPZVO51HXURupZ6jgNQzOmBdBSaaW0b2iDtCkVioqdSrRKnkqNynEVKR2hG9ED6On0Mvph+nX6O1UtVU9Vvuom1TbVK6qv1eaoeajx1UrU2tVG1N6pM9R91NPUt6l3qd/TQGmYaYRr5Grs0Tir8XQObY7LHO6ckjmH59zWhDXNNCM0V2ju0xzQnNbS1vLTytKq0jqj9VSbru2hnaq9Q/uE9qQOVcdNR6CzQ+ekzmOGCsOTkc6oZPQxpnQ1df11Jbr1uoO6M3rGelF6hXrtevf0Cfos/ST9Hfq9+lMGOgYhBgUGrQa3DfGGLMMUw12G/YavjYyNYow2GHUZPTJWMw4wzjduNb5rQjZxN1lm0mByzRRjyjJNM91tetkMNrM3SzGrMRsyh80dzAXmu82HLdAWThZCiwaLG0wS05OZw2xljlrSLYMtCy27LJ9ZGVjFW22z6rf6aG1vnW7daH3HhmITaFNo02Pzq62ZLde2xvbaXPJc37mr53bPfW5nbse322N3055qH2K/wb7X/oODo4PIoc1h0tHAMdGx1vEGi8YKY21mnXdCO3k5rXY65vTW2cFZ7HzY+RcXpkuaS4vLo3nG8/jzGueNueq5clzrXaVuDLdEt71uUnddd457g/sDD30PnkeTx4SnqWeq50HPZ17WXiKvDq/XbGf2SvYpb8Tbz7vEe9CH4hPlU+1z31fPN9m31XfKz95vhd8pf7R/kP82/xsBWgHcgOaAqUDHwJWBfUGkoAVB1UEPgs2CRcE9IXBIYMj2kLvzDecL53eFgtCA0O2h98KMw5aFfR+OCQ8Lrwl/GGETURDRv4C6YMmClgWvIr0iyyLvRJlESaJ6oxWjE6Kbo1/HeMeUx0hjrWJXxl6K04gTxHXHY+Oj45vipxf6LNy5cDzBPqE44foi40V5iy4s1licvvj4EsUlnCVHEtGJMYktie85oZwGzvTSgKW1S6e4bO4u7hOeB28Hb5Lvyi/nTyS5JpUnPUp2Td6ePJninlKR8lTAFlQLnqf6p9alvk4LTduf9ik9Jr09A5eRmHFUSBGmCfsytTPzMoezzLOKs6TLnJftXDYlChI1ZUPZi7K7xTTZz9SAxESyXjKa45ZTk/MmNzr3SJ5ynjBvYLnZ8k3LJ/J9879egVrBXdFboFuwtmB0pefK+lXQqqWrelfrry5aPb7Gb82BtYS1aWt/KLQuLC98uS5mXU+RVtGaorH1futbixWKRcU3NrhsqNuI2ijYOLhp7qaqTR9LeCUXS61LK0rfb+ZuvviVzVeVX33akrRlsMyhbM9WzFbh1uvb3LcdKFcuzy8f2x6yvXMHY0fJjpc7l+y8UGFXUbeLsEuyS1oZXNldZVC1tep9dUr1SI1XTXutZu2m2te7ebuv7PHY01anVVda926vYO/Ner/6zgajhop9mH05+x42Rjf2f836urlJo6m06cN+4X7pgYgDfc2Ozc0tmi1lrXCrpHXyYMLBy994f9Pdxmyrb6e3lx4ChySHHn+b+O31w0GHe4+wjrR9Z/hdbQe1o6QT6lzeOdWV0iXtjusePhp4tLfHpafje8vv9x/TPVZzXOV42QnCiaITn07mn5w+lXXq6enk02O9S3rvnIk9c60vvG/wbNDZ8+d8z53p9+w/ed71/LELzheOXmRd7LrkcKlzwH6g4wf7HzoGHQY7hxyHui87Xe4Znjd84or7ldNXva+euxZw7dLI/JHh61HXb95IuCG9ybv56Fb6ree3c27P3FlzF3235J7SvYr7mvcbfjT9sV3qID0+6j068GDBgztj3LEnP2X/9H686CH5YcWEzkTzI9tHxyZ9Jy8/Xvh4/EnWk5mnxT8r/1z7zOTZd794/DIwFTs1/lz0/NOvm1+ov9j/0u5l73TY9P1XGa9mXpe8UX9z4C3rbf+7mHcTM7nvse8rP5h+6PkY9PHup4xPn34D94Tz+49wZioAAAAJcEhZcwAALiMAAC4jAXilP3YAACAASURBVHic7V0JnE3VH//Om30fM4MZYzD2fYtKqShRlIrSXqR/e6ikjdIibUolaSGREpUsSUWRVMiu7Ix1GMMw+/rmf773vcedO/e+d98yY9T5fj6HeXc5dz/f89sDysrKICEhISEh8V9AwJk+AQkJCQkJiaqCJD0JCQkJif8MJOlJSEhISPxnIElPQkJCQuI/A0l6EhISEhL/GVQb0svKyk4U/50jGv+PFS1GtEDRQkSzqJq/vR0X7aT9f7ZU0VZHRUUWVfW5S0hISEicHahy0hPkFi/+6wIbwbHVE61QtA4+OJ/Dov9U8X+uaOtFW8MmiHC7l/1KSEhISPwLUOmkJ0iIx7hItD721rwSD5dgb8RlqnNIF/8tEe0HNkGChyvxHCQkJCQkqikqhfQEyQSJ/3qLdoNoV8CmrjyTqCXazfZmFee3Qfz/rWifCwLceUbPTEJCQkKiyuBT0hNkQnXlnaLdIlqcu/tnZ2dj27ZtyMzMxLFjx9CiRQusXLkSpaWlsFqtp1pCQgJCQ0OUv2NiaiAuLg5t2rQxexjaBTvY23PinFeI/z8RbaYgwHx3z1lCQkJC4uyB16QnSINOJb1EewA29aVL5OXlYc2aNVi7di127NiB8ePHIyAgAB9//BHyj3yIFo3DcGBfAebP74BOTdbjsgujYRFUZfETTfzzxOsl8Mdx3H1TFA7uL8ELX6bj6/n/oEaNGvjiiy+we/dutGvXFh07noM6deo4OxUS4EX2NkZcywzx/3uC/FK9uysSEhISEtURHpOeXYVJqW6EaI2dbcv8nuvWrcMPPyzC778twqHDORjcvwiXnx+F7IPHsXXrVrRu3Rq1atXGsRx/ZfuoCH/kZf4uyDAMB48U4djxYkSE+yMkxIKk+EyEh1mQlV2KGjEBCAwMUgiPWLRgMkY/VIj1f3+Nfn0PISauORo1bonLLuuBSy+9VEiGMUanSa/R4aINFdf2jfj/dUF+azy9PxISEhIS1Q9uk57dMeUO0Z4Xra7RdiSuP//8A8uXL8f6ldPRpUMZBnSvgTt7WtCh9wEUFdfEqg05sFqBzZs3K6RHqSwkNwgB/n64olsMzu8QiaycUuQXWHFCEJy/WB4V6Y/b+8UjWvz/16ZcXH1ZLKZ+Yzl1zJPHd2PJinAk1gpCUZEVl3Q8ggfv8MNPy//AM4+MQHpWCm6740F07doVcXHxeqfOMIkb2cS1fsXrFOS32d37JCEhISFR/eAW6QkS6Cv+exVOPDDT09Px0UcfYdOa2YiPzsaCX0qwdGY97NlfgN9WZyM+NgBLPm+M1k3D8PncDNRJCBSkt0nseRMSExPw+ccnBKnVRHFRGerUDsKuvVnof2Us+lwaAxaEKCkpw+zvjiGlXhQ6tg7H90szUepnU2Hu2LEdcTXKUFxcJsiwBrp2jsJqQay/rspCQaEVo4Yk4dlxO/HWaw/hxzmhyENn3P2/B3DhhV2NLud60a4V1/2R+H+UIL9j7twvCQkJCYnqBVOkJwZ9P/EfB/7BRtvQRle3bl0sW7YMiSFfYtS7tQQhBSAnNwPbduWjR9dofPj5Efj5BSB1fyEWLM7E9X3i0KxhKG4YtknpIzGxjti+FAfSinDkaDEiIvyV5Qt+zsTeA4WIDPdHfFwgAgP9sO7vXOzYk4+6CUFISLQJnBs3bkK/K2LRtnk4Fi07gU3b8tAsJVRIlVZ0aBUu+ixC7fhAhUxH3JeEfQf3YuKXs7B79x7FeWbQoEGIjIzUu0f3i9ZX3Icegvi2unmPJSQkJCSqCcxKesNgQHgkuQ/efxXNknbhcF43vPXW2xhw7TPIOH4Qd1xfC0mClP7ZkY/vfzmB3pfWQJ1aQfhzXTaCgvywI7UAc344jpyTtpp+0dHRKCgKUNSUOXlWQUD+CA21KBJeXI1ABNg4EMHBNnVmkZDoTmSVKmRLbNy4AW2TrJj1XQaSE4MRExmATu0iEBLsJ46Zg4ICK3p3r4Fz20fgtUmHsFmQ4sMjxmHim3fjrhvCcP+g99Cg+fUYNepZcYxg7aUmiTZLEF97QXxW926zhISEhER1gFnSe1S7YPXq1YoDyvSp47BwchxWro/BmAnfIyNjFJq2ukqQ3c/4bkmmYpvLyy9FmCCvDUI6+3rhMdzRv5bihXkyu0SxzeXmZGDhwoWC9KKwNy1Qkej8A/wUVWZAgJ9yPNrngsJtrFdaWqbs37xRKOb+eBxFAVvxzz//KJ6g9aNKkSCkuYSagbi6Rw3sphfoT5lo2SQUaelFOKdNBL4S51CvThBW/1Mbe/bsQfOGJSgU/X/2VjJuHjIT33/fSbm2oUOHCdINVV824yK6ifazNzddQkJCQuLMwCXpCcmmJjQOK0OHPICE8F+wbXcxCooTMXNehiLF9bsiGu+++w5uu/1O/DBrEVo1DcPaTblo3zIcQYF+goAKFYntnx15CilRlUkvzW7nR2HmlPuxeVc4vp5YC5u35om+4mwSX65VSH2litNLg6RgJNYOQkSYRZCoP9ZuzsGTDyRh9JvLMOzh9biwfSEys/zRorGNqP5Ym41csX94uAXtW4ejQ+sIrBfEW1oqiFPIatddfxdmffE+Bl0bhvM7Ripq1B17/TH14zEYPtgfN1w3A2+/NxeNGjVSX35rSNKTkJCQOCthRtIrEI3qPItjQWFhHrpcFIm6iYV4rGUpfv69BD8tPyGkp2AsWPIVkkc8gWVr49C8cZ7iQLL/UBGapIQoIQcMPyCJFRYF4EpKgQVWvDMlDU0bhmLXvkxBiKGKvS4wyCbhbdySq3hzTpsbiIL847jjuiBccE4U8kW/haJt3ZmPAEGoKXVy0OWcWCHNFSuEeSCtUOnnUDqPLfreW6AQYImQEhNqBeKV9zPxxMgkJMYeQHKd2piz6BiCgyx4/aloHM8sEccU0qalVAmE1yDbVzdfQkJCQqJq4ZL0oqIis4W0t1r8eZ5j2dPPvIAXnroMD94ej7+35+GuAbWwfU8+Vm/IxcDrYzBp0iTccONd+PXPl3F1j1hk55QqZEeJrm5iEBb+komTWaWK5yXDEpo1ClUC0El8QYEWQY4W5AliDBXSXLho7HvGjFnYsGED1v76nEJ4foITaS9kOEObFmEK0VHipEfnp1+lK8upUo2J8sdVQgr9bXUWcnKsSpzf5Jnp6NnnIXw58zO8MDQZiwVh07nl0guisVBIe7XiAxUnmGuuHy6kxHD17SgW7SffPwYJCQkJiaqAWZvey6LNdfyoV68e6jS6CTtTFyhxdPMX24LF2zQPQ8bxYixeNEVIggOUdUcyinDVZbFY8tsJhZQ+/CIdnbrcjNWbFqNjS4uyzb5DhXh5wkHc0CdOCW14eGAivhGSVzshHdYRUtnho0UoKSlRjn35RTGKJ2ZBkVXx6Ew/VoyIMH9M+uwwMk+WKJlbiktsNr/PF9XD+vXrT4U6UAW79I+T6NQ2At/MFZdTehSr1oUjLjZQUbN+9MURhXRjogMwfV4Ili4bpL0PU8Uk4IBP7ryEhISERJXDFOmJgX6ekPZ+EX92dywbPvxxXH/NLLz+VKxiI1u9MUdRbx4VpDd0YDQ++epbxWZHD8mkhGBc0zMWk79MR0hwAMaNG4cxY17E4H6/KOEH707NQ6QgHYYZ0KEkTJBYg7ohCnHtTytS1hUXFys2vt/XZCtS2ZGMYmVbSowZmcWKh2jXzpFKCARVmCPGHsBPy/7GY489irgav6CdkAZ3phYoKs/Mk6UoLdiBoXcl4tiJEvS6JAa//H4SjRuEiuMG49X3D+KJJyeI41vUtyFHtOd8e/slJCQkJKoS7gSnM0XXKtgKuAoijMK1NwzFZ3PeUrwka8baurr/tgSMeHkvrusZIgguFjWE1JQupL15P2Wic7sIhIZYsGTJElx6aQ9MnPaFom4cOigRx4WU9tCoPYoTCr0z12zKQcP6IbCKvzOOlyiSHhNMkwD3pwkJT5BezbhAWAURbtyah7tvqiXOIRDr/8lVVJPh0U0Uz8usjD8VEvxzbbYiwZ3XPlKRBC8+L0oh0Nefrq84ydAxhsQ44dPDyClphT59KqQRHSfIP80XN11CQkJC4szANOmJAX+tPSHzHY5l9957L958MwdjJk7Bd5OTsOKvbCX+rf+VcQr5UBrLyCxBfI0AJNcJVIiMBMTwBCaZnjKhGJ3ahuKn306iYXIw7r89AUePFSvERNUlPT6tVj/FNjf+zZeEVJeLqy+2KBLgcSGhXdGthuLkkiq2/Wn5STSqFyIIzaqQZrMW5yuVGsqKDmD/oXCcKwh36658pUVHBii2vhcfS8YbHx5SiPaCTpF49s39qNXgNkz7bKT28kl2r/vmlktISEhInCm4m3vzWdhSc4Xxh7+/Px5/fAR69uyF/kOegKXMghF3RyienAxXoMfm4fRi7BOSGcMWunWJxqz5GVi7+kcEBgYiICQJPbqWKkTEcAartQyBAX6KXe/aXrFK9hRKYNf1YpUi+pAwx3UdxTGmTbMwQWaFyMu3KqR6+Ggx/CxQjktSDEzoouT9ZA7OeknBikqUMXskxNZi3+ycEiwWZBsc5IeJXwRi1a4LBOEF4IUXXtC77tGC9HO9udESEhISEmcebpGeGPj3CmlvjPhzjHp5u3btMHfeIiXQ+9XneuCd0Q2waGmmEidHUgoJsmD77nwh7QXj8fuSsHnbDlzdMxk9LmQ8XbQgtVj4+dlCFOiYwm23ibZlZ74gzSIkCOKiI4rgRMVrMzu7FHGxAfAX5Na2eRgaNwhBUJBFsfmRQE9klWDF0iexbU8gvvs4ETv2FCjnUlIKHD1eosQJptQNVio0/PJHEV574wO0b9/e6LIXwJaCzRdgCaaxJrdlbb+DorHe3+eiHTXY7i7RHjLZp7gDyBRtm2iLRftOtBKDbZnQdIHJfvVwXLQeqt/TRWvlRX//E41VL1jRY5YX/dARqa/q92Oi3aqz3UDRNtr/XuvF8dRgRRLe9yH2/rW4R7S/DPblcotm2T+i3ab6zcxJd8Ac+C4wl+wW0X4U7QfYQpPcwTuiGSWuZZ9PutmfM/DbYYzsEdE+c3Pft0SrkGLJAHmw3Rfe26WinXTzWM7wICp+A/zOH/OwP/oY1Da5LUPP+O0zjeJSGI8n7oCmrkthKxTeDrZi3RzUGda1F7bvlQ6Qm7w8DouQXyXahaI1sx+HElAhbNexx36sRaK5LAruSWkhDtq80UO0K1JSUmAJ7445P/ylVE+gRLV4+Um06RSmEN7eg4U4eLgIE8c0VILUKXX9tTEH3y89oey/dnMu+vaooWRNoe2PcXhfLshAU+bPLBIdCsLj8j/WZOOKS2wJqNnnz3+cFP3kKscLD7Xg1mtr4t5b/ZUYwWV/ZimSYWwMVZoBmP/TccXhhhLh1K/SURhwqTPCGyfaU4Lsyzy4T3pgXaMObu7D6vMviTbafj5a1Pagz8thI8rdsJGJXrB9kAf9qnFE87upl/1F2P8P8bIfbXLVJIP+1LEq/KC1hOMJHHWtEg2OGaGzzAG+pP6aZdoJSx2Dfp2BZEKyJPlxAvWnyf14P0i4NQzWc2DyJendBNtEgYObu6THFIoVkuqaANVL82BLsr/ag/3V4Pv0CvSfMUuZrfCgT94Tw+T/TsAJzxLYrsvTRBssFP6iaA0N1vM9vNa+DZ0g6RPi7uSRiVFYzWcgbGRqhEtwehL5p32fRUYbu016dgIYarfvzRatnnr90GHDMfbZKwXxxOOicyNRUlyGPQcK0fXcKCXrCclr2cospRbePzvzcM8ttRVJbc2mXMWGR6mMCaq3pxYI8gtXCspyn83b8xR1Z3iYP2rXDMLcnzKxRUhsLQV5lSghClBSjSXVDlLybNJ+yH67d4lWnGko/c0ThHfReVGK/e7EyRJBlgWYPWe00aW+K651uLv3p5LAD+UN2F6wB33YL/vjy3GNaN/7sF+Jsw8tYBsASYLLTWzfCcaERyTZ+9zi/amdMbDMWH/YBm9Ki0/AfWnYgX4wntTcDs9Iz1Nw8tTT3qaKdq9oRSb3DbHvc6Mbx6PX/x+w3b/xJvehBuFr2CZP7uB82MYyasd4XTnaDTwuIisIYZUgPkoL89TLmzZthoycFBw/cRxLVpzEVT1iFels09ZcfL4qC+Hh/rhYEOAWQXg7Ui34VUhi2wTRDbsrET0vjlEkwZ2p+diwJQ+5eVZknshXpEbG81EyZDgD1ZtMLcZUYlRv1k8KVqQ+VnFgYDlJkg4uDHhnaSF6f9ZLClJyfhIr/spSQhdqJ52jl3GFGCOur4I3SzUAq9Mvg3fqPS34YX8Cm9qwwgsi8Z8CZ9OfwiY9uBoELzPRH7c5m0nPAZIEJ8BMx0gJxxPNz+1O1lGbMxQ2dV1VY6BoyaL1MXF8Eh4JpZsHx6HmiBMHqiqfdbFtZ/txnGk+XIHPib4n12lXeEx6dnRR/9i3bx8eHXIzbuuTi1uuqQl/8aosFaRGT0t6SNKbs26AH8Z9eEjx1Bw2OEIJJdiXVoSffjuh2PV27y3AwBtqoYuQCun5SRvdAbsjDGP6GLKwbnOu4txyyXklCkFOnZ2ulBNi2ENzcRzuy5p6736ahqYNQhUVaJdzIoV0eFxxXLnsgmhc2CkKiTX34dq+l+C99z9HcnKy+lIMi+NWEjhx+NX+N9UwVGX1ho2QtKCqkxK2qw+PRPa3/W/aMziQXQt9NQ9VpFSVfGziXDkYmnHqMWsLyTS5nZHt0QF+sHkm+skyeTw1qH/301nOj1LvGXF7vedT7MGxfYGJsKmyCQ5ctCtRug/T2TYFNpvnVy767OFivWObCSbP8WwAvxHaxJ53cz+qnbs7We+wWX3t4Xl5C05O3oXNpuwM3Kabl8caJRqLchtN3Pl+fgHvCI+gTfERvRXekl450XPBggV4YUgZ2raoqZDYRiGtDRIEpsTObc1TsqmwugHJabFYX7tmoJDkStBDSGRUa5YI0Y1VFej9yfi9WrGBSqqxpikhiiTH9GO0z8VE+2PWggxFAqRjC9dxe8YI0gN0zLsH0K5FuLL+qh41lOoKy1dmKdLhhedE28IUmoShz2U10K5lESZOfA9jx76ivpT6Xt4Xd0Gdt1bsZ9o36t3DNcubwKZacmVj+BYaKRy2j48qrGY62/PFN0N6c2D7+H0BqopifdQXHWX+56O+tIgzWE7VcC+d5Q3gWwcIb/ElTk+qHKBqm+9dvYqbK84JzkiPEuEFmmUkVb6rascK2looJZW6c7LVHM+INhM2ZzCzoKOUq7GWkuCZIj2C3w5tpdr3xAEKOHf76Fhvw+YkpzdJ5Xk00lnuDkh43URL1VvpLemlq39ceml3PD38HSTGH8Hrz9THhn/y8PPvJxUPTpYBog1u0bJM3HZdTaxcn6MsZ3gBa+v1723z4KQHJpNGU81JT04mimaCaoJqUtrnWKGBkl9CzaBTx2aZopXrcnAyq0QJQm9YPxhXdo9RUosxaP1kTgm6dYlV8n7S07PXxTF4Yuxe7NlvxZARFQLRj3t5X3yBlbDNkp/QWUe9tSeG9UOwOS3o2e+8fdEkzi6QpOho8rnOusYu9qW9JUSzjDabKNGuVi2j4w5VVWadY84E+C0U2P+m1N7U3ozAbR6GeY9p4jbXm+BK2CZXx9zo1xmW4rQWhRMPSvCU8J05ZFEyMiK9Co6LGuyCTUIjJ9CWS/VitMG2tCnRJviJzjpn3sfUMHFizrGPYzQ1WLwueo9y0s7rdEp4hLekt1S0pxw/mjdvgW8WbMWwoQ9i2te/YtCAWkqVBKu1WJHqKOExZRm9NK8QpMNisIy1o4flhKmH8feOYpT41UW9+k1Qv34DxMfHIyYmBvFJUYIc/cW+JUg/mYV//j6KvQv34eD+HSgr3oOUpGIl2wvVmnReIZikmjlB044UKRljmK5s+aosJdXYJedH4bM5R7H9QF18MWuhtmYesdjL++Ir8IPUIz1nH6UrUNLjLELrCeitOkHi7IPRe67VLmihp9pktiaqzq/WLOdgVJ1Jjx6rhzXL6ODByYCRhE8bnFnSo+dvWxPbcQZPIphosl9XoA1yjWYZtUdUK+pJ9wRNKnz2WvMFz61vxc1PgWEJA1DeDkwvfxJoA4N9eA+1pEd1u5H3MScmF4m2TmcdbYWcXDGBCBMmpzo5V69JjxUHGD/USb1w5KjR+N+dFyK5ThaOZZYoYQSrhGR3+UXR6HOpTd1Ie9u3P2Yjtva56NHjFgx6+AK0atVKm+/SFA4cOIBVq1bhvW9WYsumX9GwzlEluJ0JrG+8Og6/rsxS7Hp1E4MVJxaGLzAF2ZNPf6BHePtEm+bpDfExDhosjzFYbgZ8MalW0Nr2zNjDJP5dMLKn5rvYT8+JhZoJPXsxCXKMzvLqDMYYcvDUmgccoFmHE8/tJvpy5sCit62vSE8PfEb0IuUERW+gJbmdC5vaW42O0Lf/EhxP7kFFx6f9sGkSZhrsp1WPE3Ss0E7GHWAcqR7hOUDpr5uT9afgFekxfCErK5u2o3KkFx9fE+0634I9+79S8lmyZA/VmPSkfPjZPdif0QB33DkC337XD5GRnoTPlEfdunWV1q9fP+V3Wloa5s2bh3cfnIkOTdJw9821hXQXrRAfnWJo68stOw/nn3++Xnf5cP3RVxX0nCQIT92mCaoE9Gby+7zoU+LshJE91dm7QOlHG9hKJyIOSJxBarUItAVxwDzbJlXzYYs1NQr+pjnAFenxPtzixjE5INFmv8ONfdwFpb/1sBGZHnhdWtJzplnaAI2ZS4UfnexH1SfVnGopO8hgW8KV9sE0vJX0iAF6C3dsW4UxbyUqZMcK58+O24+gqK54dPjb6Ny5sw8Oa4zExEQlLyjbxo0b8dKHk1CWuxiP3F1LCVugrXDG3FUoLCxEcHCFRA108uCHWpVxM0ZoabBcG/jtDuhcoDfL+8OLPiXOTnQzWO7sXaAXonY2zkG0yN7o4KF+b/mBUS31g2eneEZBUjMivZom9qeUm+jmMSntuXLp9xa8LiPS07suZ9fgjKCpScgQLd5gPftVk94JJ33xXtLzk/HKXgklviC9cg4Q9913L7ZtWSekrYN48Z1IIVkVYe6PmQgICBCS4WrcfdfNPjik+8jLyxHncVSx7zVrFIKMY9no2eMClJT649Npn6Nx43K2e3q2VQfSu89g+XoP++Ps6hWd5ZypG6khtGDQ8TUmtqMqRWsr0cJisi+qSlxlc6hvsi8+1wwT2/3bwcHtRZ3lTCH1jZP99Ox5K1V/U3WmnaxRHXo2kp6zQdhI3aeGM9UmU9zp2fro9FLZpOfudUU52d7Vt+SM9LT9MkUg3z8j9R8TI9N7lhMrOs7QGYsETi0D76epOEdfkF65Wd++1M34fTZNTqfNTh+96oOj+Bgj7rOF4g17fg8yMyuYNoz0ylUFDkivQX+AoUHXMMWOCjSgOwzSfLk4s6OdIklnW86e9ps8t64wzreoBgnIyCaixrcmtmH2H1cecJfbmyvQHV+rvvm34xycVpVz4kO7Dd8FvWwXHFiceRAa2fPUfw/UrDcT01cdUeBknSvnAzqGXWuwjrkiSWx67z69ESkZm8mK4yncvS5nakdXMbvO1mv7ZWwr/UT6OdmHmoO2qDhh4HHo+EebqNPv2xekVyV448ODShwe05D9C8FExHfZ/+ZMqwGMiXcKzIVU6JaL0ID2FyYNruyZpcSZxZsmtmHgPD3u3nCyTQPohzOsUv29Umc9ByjO9s82CdtZMgFXySGYvszIDsXkEpR8mQFJz2uaEmJlkp671+Vs0HWVucfZer1+GQDvjPSMwHt9vb3R85Yxhbpq0LOC9JjC7O23DythBy8ON/K2PauRCHO6f2YQf8ZHx/zO3tcGH/UncfaCgei0l2x1sZ2elEciU2e2Z0Z9zrrVA74jG78v0+dVBZwRmyvSc6ba5H2gtEXi66+zngM3YwErKy2ZN9elhSunOncTEywV7QPY8mZ6CjoPaWNGT6Hakx6D1R99PhXTm7bG0zN34vb++UrVhf8gSE6MlXGmj3cHjMhvA5uN730f9SlxdoKDLOOjaOP71Ml2RvF5ajBdHO2vF2mWkzDPNtJzBr20dA7QdtLNYB1tUY74OWY30iM9JvLmtz7b05PzAs6uy5PtPalOwhzDlBAf9HB/gmndqMKvEABf7Ulv5rwMND4QhWb1wjE6qSGGv5SKeZNbnOnTqkowf+Yk2GY/7uRu5IzboU7ic6ajh1ZM5m/qwPmRvWyyXw5oZuIYN5vsb5iJbVxJIAQ9Dr80sV1luoNXV9DQ75gs8V2go5bWtkuHtKmwSWhGsWKX6izTU2eSCLWkdzba9Zyp9ZwN9rc62VdN/NS2cHDXs5lRUqws0nP3upxJf644xNl6o34pPTIDDO/V47Cl+jNbD1GNR3G2kV5Wdgleez0Nn9dtp/xuFxGJuH9ClBJBfS/3VcrGagHO+JbZ/+aLQF10Gmxemgc87JNVIrSOJJxVUt+t/ciYVYe69GwT/ZI03vbwnLSw+rCvv33Y178NnFho00sNhC2lk3YAZDJlFk3WTrAcRUK10CM9vWUkWjpp7HFxrtUJzhw4nBGBK9WmA5yILIUtA4wWHOgryw7q7Lr04CzZuyu1m7P1rpLI/2Zv9IpkGBmd8RjH2NjeXBXQZdFhBryXc9Kr1qQ3ZsJBDAqvi0h/nqbtHXuqbgPc8vImJXk1c3H+S8ABqSoGbCa05UD3gGY5jekXwzbzlPhvYCps3q7a4GkOtPTu1IbsGJUS4iRKa7cxGlco7X1k/hTPOJyl5jNy0KCaWFsd3QHmheRkVj1Yc7KrR3okJiZ2r4wqFc6uS8+O6MwD0yi/ppn1ZkuZcXLwPSrmDGaiBBYIppbKSHqlCefsIL1/tudhxde5mNG0fB7k2MBA3GJJwBsfHMSoockGe0s4AbOba0mPYGyVJL3/Fvgu6GUM4bugJT0j9aQ7KhcS59lEes6c5rCqWwAAIABJREFUy4xKVDmT8mhicBW7qu2rMkjP3etyFsLibBAmv+gWLDXRrxlwf4Z2MZNNhbp5dlTQTlRb0nv0xVQ8ndxIqbygxe21EnH1tPW4rV9NpCRrk71LuICRutTZyynhWxh5vLlra/EmHR1h9l1gjJ/WRucJaBPkdXhShLWqwcGyuZP1enGtfH6+zL5xrv0czNi0zSLE3q8R9N4JZyppxoAalY+i1GukSuX2vkp9uNvJugrqwGpJerMXZCBxTzhaNIjQ/Tz8BRG+WKcRHh+zF19N0isNJ+EERil8nGVdkPAtjNRFRs+AGSr0dPneVro3+y7QnuKLKhxMukDboKcZhaoKHMTp0WyU+5b2Tj1HLaopfT15ZFKGkT7sbxycS+d6SZ2dZUOiOpwxxnoS/ONO9qMN3lkMHyU48hOv3VneVk6iLnayvoJNtNqRXk5uKca8dhBT7M4rRjg3MgrT1wco9fmuuKSGV8fUkyb/xTCK/fFZQlcJlzhksNwosa/RcrNZdIxg9C5oU1EZ2fOYDspo4KJE0URnOdWk1Yn0KKmovZx5r++HrVSNEegprDfhcKeiglnQE5QxlO5Kx7RlOcZ3Rz09uvAbPUtil71pQZUsQ6aMBmWqYEn2TJzBvMBUjzMG+AYnx3KWlo6E5yBMqt9Z3JaZWjbb+6cDDCdmlCRZes3Zs6oQh1ztSG/sewdxU0hdRAcYTbJO47m6DXDzS3+j+/nRSm0+CVMwSkFkJpeghG+w0WA5Bwl+8NoB7kaD7bX10tyF2XdBz55HwmwHY+Kkxx1tLtoPk4Ous6wvVY0FHuzzsc4ySuNmcr+6iwawSTLLXGynhV6BVlfQuy4HJsOWvUkPVGG+YG9UubsajLmN0fmpCY+g089j9qbe38yAz+9jr3ZhtSK9bbvz8e4naehdoxY25djsqX7aVqb+XYbsbCvGT0nDE/frpZSU0IHRIGVWfcUqxf+Y3JZZJZaY3NZbMMD6QpPbUh1zJgubUtKhtFdHs5xSx3jY6pA5VI+0EQ3V6YM2ETO5TZ3BzLvAwVxvJr3eyf4EPe4oCWqDamkb5CDpKn1VdQXVf3rV5vn+GU0ceS9cxYdS9dvAYB0lSHdJz12QHJw5zVB9yfewkZNtCDNkNF20LTrLtYTnzTGIl/QWVivSS6gZiI0/OVdrVkQdBAVKKc8NGM3uzdr0ouHaTdmBqqzGXj7LuXOcaamWM9X3oF9clUG5A2Gr/syB0MjTjlUxvHUEMCIt9bvQDfq2LTOTBm6jJT2q0WkjrOxBvDLAnLcMI9Bz2nCm2qSE9JyLvjmx0Ga3cYDxtazU7ixRtDfgBIvX5cxGzGNzAsZkzt6YQmjLG6KznCnDzBCeWTCzkG4ye5+TXoH4jEa/5a2poeqwcl0Obhh0ps+iSsEZNl9ybdCoXuCxROWBSaA5iLTWWUfS0Ss74wClxOE+OIeTBsvVcWRGNiC9AHQtSHp6XxfVpWcb6dGuxdRgeoVj6bbvzJniKxP9s/I3PSfr6qyLsR+7MtK4UaXGmqhmJjE8R6Yv/BbmJ5hqUDtwJfTDIli0lxoOpsJzbdtyDt6n/xmt9D3plQVj/AmjMnDVD8XF88/0KZwJ0AVZW/OMH5u2krFE5YEzZw4AfAG1lcidgcmdOSv2xXPiOTBYWitN0pmDxMvBySg+z6ykpwcS6SgzJ1gNQKmc9QWZ1eagwTbO0o4x3GCTyWNRXa0XQ0tQkvQ16dE5hPkt3UnNx8kKpVJKUheY3IeSMW2CtMs5kyZZhI6S5Ftu9K0GK7jzvfrQ2UY+J70yPwsCGrrzDZ9ZlG6r0oLhdL3VE4O9cT3PNujTWXVhekPdr7Oc6rbB9r9LDPp1B+pzSPdBf0SxD/pRq/VOGPRnxuaUYbCv2fg5zuzPg+1Z8L4zk4eRrp72MRr/mS7OyIX7pMH5OLO9cfC6VWf5aNjehyidPlmA0kw6MXrbcUDVBtOSZKliduaKfiZBNSbt1hyAWctxm4vtnak2zUh5DlCCMiI9piWjNibdjf604PtBEl4KG4G6KsxsBE68aD9nvUCW8OEkRi9gmt/HXNjUu0bOW1qssvfN74LvJWM7GatoNKlg+M/vsN3nGXBd36962fT+A5hvb77EBLiftWGsvTkDB2Rf1nHSLfPhATgA+fK8HF5nnsBVYVszILm+bW90GqGUxcGNpEBJjB6QVKmZqaE4Bvp2Qmd4yt6M4M29JvkbhVtUJajFMBOXRK9ZErGrnJBaOJNKXA7CKiyGc7WhdnLMIHOzDg28LncS1pvBt/ZGdSQDpqkWJ/nxPOkYk+pF3ytxWoXOZNMp9v4dVdU52aean4HpbpUv8gXpVUmQW1lxIfwCPUm07dnhqupAEhIq8EP2NgxBoiKMUob5Cka2UXdR5mZfZhLEVwUcwfpmK6u4C2oqtsJHmWmqpaRXul0QfGQc/BNtRZqtOZkImD8W1ptfO8NnJiEhISFxNqNakt41RfPxU2ozFNpJr+zEYXStk32qNgoLy1r+mgNLYTZKu9555k5UQkJCQuKsgu8dWcq80wxy/wuSclAvZxMmCAnPElED1hNH0LNtEJblZcEvLAqWNXPwW7/1OG/OudWTtSUkJCQkqiXOOGdYMw+jdO9GBLa3lZRiHsy/joZh4sBIbJjwJpY3fBiBuUfRqUUErGvSYAmNwKD4P1AzLhplIZHl+iqzlsLP4ixRvYSEhITEfxk+Jz13vVr8wqPR6OAPKMraiLRO9yiS3NwTHfBK4TbMeTQU3V6eiPSARDSqFwLr4jQyGwZ0CUR+iSA4e37OssI8RCyfhMyQJAR1NUpTKCEhISHxX8cZl/T8gkKRev6jeLTwLRw+NAYzAm9DWcdrMGr2s5hwbzRevb4Qr8zehJiYJATnHEFM1mZ0GhSJ6YsyYElqhtJDO3D18ck4EQWsaG8U4iIhISEhIXEGSY/SGcMQaLOzxCXhjR03YE6nObjK+hkG/tQOM8s6YFzpTpzXNhLdt2QrZ1o/dy2e7weUlEXj2T+awBL6G9479zeUJgAPpt8H/yBZUFZCQkLiLIAjf6c7cYx6CLL3xUQYpnKT6pJeVlY2Ewozy0Ane0d0nPw6KiqyUKxj1ohnYcuWzsBIj/KklabtxHVHP8Sq0hY45JeIspAo3DrZD3++GIL1Q3Zg4Ovp2JcRhyb1QnDbVTUB/zJMutcfHZtH4Ld12UjIO4qZD6UB1jB0mtIe/p1syb/LigtQVpALv+BwIUV6TIJvi+tksUUmR50grnu2/b4wC76jUGSqaLPEOqPURHrgvdPLfuEAXwAGdS6FfgVjXuRgneVGYOof1sdi3Sl1bSv2PdGNfkLtx2X+P9ZIYyJpvhepsAXUsq+jbvRHvKz5/ZZOH8ySrg6+ZQD3Ec02fOkHinYdbAGyNPQyrofJmH+GLbFzms7xmdzWWSFGPgveux+hHxjO46mrD/wm2kL73ywxc56TvrWYioo5HZl7k6qL82F732isZqA6M1swS71ekoPO9vNSg8/nZ82yy0XrrvrNrCwM+mcNNHeTCbMcDQOER8O4SrYWTINUXfL/TYIt64cDzOzxtIn9psJ1qiwmHuD7ypyVzIJkFMfGCg3a78EM+I52UP0WIgFecbEPg9Q5Zq2A7Rr0ajvyfkzy4HwcYNIGbfJsvr+32Nfx23AkrWcMJe8PK1dMg+vEALSgMdHFHbAlLue34RgjmAGGWWbm2/vSjc+sQHr2gZ07qfPx3SvaOLFupv1vbbJit+FfvzW2HqiN1Y+eQEhoFnKLSvH3Pj+8Mu0A3hyegoWv10GpVVyhOMP4eBuvntPGVkm9XlIQlr8VAb8yP3QZVYayC8QYk5eFxPVTMKTNXuw9lI+Ju1rAv7deRZbyKNOPQ3c8ECaRvVhc99ewpcJppdnuJbHuAUF8n5q8bA7KzrJfOMBMFuyTmdXVqZrqm9zfAQ54HLhbafbjC2mW9Bg3wppjeiXqmemiq/08mbT2FzfOjcUf1YTGgVxLeiNQflLFD0NNekz0y3dVrzQHa03xo2BuQX5o32nWM0FsQxPnyfvPJLjawYR5M9VJbTlJcpAeJ0bu6No5qVSTniPxrvb7ZJVqPgdOYPhO8rrUs1vm/9O+H3w+WtK7WLMdCZukx1JQteEemL+RpPcIzFfqYCq16kB6/M45eKrHs3tgI3BXaehYFkqvSK4W/PZIIkwQzmrsvE/agT3KZF9aaAf1SJP98HvpDVtVclZ/eF2zPtzD83FAyw8ctyg46JWo4rVfZm+svsBxRC+pN8F7Tg66yGA9v4+e9sbrYr7UGdqNyn1UYgDnTWPSU71yJgn2TnwCPz8Ltp87HO3e+gQjOmzHkkOlyAgJR4PwYGzZm4cOLcJh4bzRUTzPAcFR9esGK4lnVqzLQnxoIGpsehU96x3Fw0/E4cdVQRhxoD8Cenf11akS/Q2WM1XUZHHf9gji+9VgG09AMhhk7/8mH/brLvjyciB39QHwZWM6Is46d1f2SdnBd9eI8NRgWid+cEzZ5EnGCD4DpmzjrPpdD/Z3F7fBdYo4gu8k84be7WI75jHkoFOhmKaEMsBqB+g42AhBtyyNF6Ckw8khv+0Hfdy3p+C1M+MHS1iNqKRj8N1jbkxt7Ug98FvmBIyDt5b4OEHhpNpsWjuOSdPs/axWr9DOJO80eXI+AZ1YjrW7GeN2j0eHu5sqdz5biHcjp63CV41DEBoo3hNLWXl5gDKQ1caCF3aIwkLeJkGARflxmP3zcQzd2BMB7XxKeK7Al5kzpp4e7EvJ5mN7H5RMKLarZ8t0RWVeSKOira6SQntbf4vSkJrwTtqXUVKklMSZa2P7Op73aNhmzlUBvqtqwqNExsFkOWwSKPOROsr28ONmTkpnla2ZgJdSMb8JqhapAlS/eczeTlWpmWTSVEMaJWSmSlWbX9Fh1+CxtRIlJ6Gj7dvQ5DBStY4TI6qF/3ZyLryGm3X61QPfJbVmgZPgeNVv2k201R2M3jGqzYwSXZvJI1oVMEoUzeW+Jj0H+P1QdWi28kJVgKr+RaioEfAWHKi/gHucQhrgJLUjyufUpPrXnTyu/E6p6lutXaElvU7qH2vWrEFOTg4uueSSCj3++uuv2Lx5Mx54wDuPyYB109Du0canflv8LQi5oSNe+ewvPH9/HRsdqCU9fsKlZacWrtqUjZfmh2FlTlOUNL0ElnYJXp0P8eeff2L58l/x+OMVJz+pqanYtm0bevXqpV7cxcNDMWO62n7AG7EB5YucUpQ3Ij2q+syo6DyFdlDguc60/02JjgT3u2o9pQ+qv51VePAVtOdGdeBU+98kL0rItH85iIvqyFgYD7jc93vVb16H2q7Bj7ENbM/HFZ61Ny0s9v3VpMcJxHL731TxJKnW8fly4uMgFhIvCbmvqj9Khq5U3rQjmyE9rfpJew+YALg7zIEZ+CsMONUITGB8ocE61ozj5CTTzT5Tcdp+zGdDG3y8Zhsup4TpivSounSVh9XMd5ajOhYHTY4XerUzaW5wkB5tY1pTBR0k9MY5vrtade0J+/+9DfbhpJCTOZIaJ/palTrfcdo5v7T/prp1oE4/nKSRIA/bt6FpjgMzWYOq0vd09qlAeuWycIeHh+Gm6/ujRf36uP+JJ3HllVeeWrdq1UqsmPgeWrRoge7dzX4H5VGybSXO6+unEJ0aQRFB+D0xBWMmp+KxQbUREmqxPS5ynWOezcwvZX44lFGE9rWKEWzZir2703C4JA5ZAXHwi64NS3wyLDHu1UZNT0/Hi3cNQkhdMfaoSI9EOO6VsViz4jc8IO6FhvTMlpJxBZbsoHivlhpr+qhvd0F1glZ1+LXmNx0SOKN3zORI1hw4fanq1QPtfOdrlmnPjdIP7VSOyt3ch4OcWVvSR7CpftSSt7v2Li04SdAWjVXPrLSFSKla1kpSvM6+qt/Oipc6wGPyWZoh7P8KOFkwqlDAzPacbLjrzEH195uq3zTQ0OapfUbaWpZ64Lt7qcutXIPqPbXDDQmBWhBt0dNusBEb37c/dI7Naht6KnKSllGSbD2zEPugqcFRIqmG/XhanwE16VHqC9Os5+SCNmztJJYTU5LfVINzqkB6S6GyETRv3gLTPv8cbw+8EweeG4lb3x6PkW+NV4hu7959eK9FMzzy+GPo8tvvCAkx7ylpPZEO66bv0bLjIcQ2069cEt8hEWuyYnH9mHWY+FAM6iUH26nFz0Z+fF3F7+sui8O1QhDNzrIidX8Gdh84gM2pxVi8PRjrtwvS6/2w6fMiRo54HOPrJeHJQzYtzrFjx/DsU08i8vcVOCcwAEm33o7hwytUtf+9QkeeQ1s+pLIzxBuBak31oEBVrNZzkiC5qNUXVEFUNuk1gG1gcoAf6k6d7XhuLVS/3VWPcEaqJj1vSrPwfJ/XLCMBqyuIa89PT22ptUvqORg5wHcpwv43pT1JeqfhqiwUNQneeDASdIah2lBLet5WBvcGlK6oIteSHgmaZgG978hTdNRZ9gHK1wSkNE0S1trL1fvqTfzppamntdkEF1K0lvTIrPQyOlUFtkuXC7Dy/gcQPWsmJgT647nr+6HJfQ8gbfcu1AwKwr0RYZg6dSruu892D/0MqvIwp2bpjlUIP/kHUtrmoc7QuvAPcl6qKzgqGEG3n4c7p27C+OtL0K5FeAWZqqSkDC99sB9v/NUMge2uhV9sIvwSY+FXR0iQR/fDuuJTREccQVhEMUqK/AQ5RiDXvwH8m3WFJTJWkRgtFtvYvn37NsStWY0GjRshqqAACxcuxIdPPYGXa9dCVL1kDMrOxfdvvKE9TQ6EntZj04LPo5NmWZVWuVVBqyc2qtStDQfQc4LyNbTnRjLWe/G05+aO7jtIZ3t3KkxrQXuj+oWnSuhJzTbae6cXaqF9DpwpcxDVI+Q5OK0GprqXKixZNsvmMu9qAkRNAs0N3pAAJYHeOsuNzBVVBaOwFLfq0plAXZ1les5kesvU++qVUKIkSi9mvuNu1T8sR3pRUZElWVnZVJ1QxXbqA33ooYdx9bRP0dffgnFNG2PGZ58i57AYZzq2x0U1amDCJ5NPkV5YgF+FHJiMyYs58jXaXBuD8AT3tHXMxZnQry2Gzt+C1/JzcG6b0/k2rdYyBIjjPXdvPbRpnIa7/8qEpX5rlJUUw7pqBlp3SUedPnXEuSSV67OkIBMH/5iE3X9EwnpkLyIibJPhTz75BIOTbEJLs/AwzHtkKD5r3hTBghSf2LYDL386XRyv3C0jBd8n7punxMSbRG8xDlr8CB9D+YGRqhFndhFKD70M1nGWv8LD8yK0zhZGtbu0kqmzIpjOwNmEVk1ipH7SxtcZVZ735tz4LNSefbS96cVOmgGlRa3djVXQtYOf9vz0rkv7HCz2/fTiJP+ETaVLOw7DO2icX+r6dH0CkkaswTpqAqrC7msEPQeWJbDZVB1w2EtHu9HvozgtQdIgQ89F7btK6W+Kib4owTtzLKH9WRtqYAacyH2os5wapX0e9OcMeiEsx0wu46TToW7VI0V+m3Q+o7NUKmyTE35PtDvz3uTp7KOgQpyeGMD3C+Lj7GS1vWNloL/+wYfw3ZSP0bdWTdxaJxF9ap62z3YUUtH69evRvn17xMfHoyz7GPyibba00sO70SziK6Rcl2x0DqaQ2KcFRizZhYf2H8P1PeMUupmz+Di27c7HwwMS0e+SGmhYaxE++P4bzNtdggue7IjA8CTdvgJCAlC/e33RgGWPr0VsrO293Pb9QtRPqa/8TfKLCbRpIY4XF+NIq9bo3LlCmMmr4n6ZeYGNwNi/DIN1jI1zVTeJD2GRwTq+KG08PC9Cq0M3ilvSeuhp9zMLvRmxEbTHMPISdOfcBsLmNMQPjZKA2g7CD8h10KcxaLdTOzSQzJ7T2c7Mdek9B6ProlRH77ln7L+p4lxqeJa+xTtO1lF17ks1mjvgR61N0MvJKz3yOGCqJx7ukl4SyjsiacHjME7PKA5NDRKGM2cJs6FBtOU6TCQk4giD7eig5mtJT0+NqzfZMZoAOfiJGg+aASp6VNom/s3srY99GdWeo2EQYqSbkUUM5H8L4qOe9ZTx6uabb8HAcW8opEc4CIG4LC4WixZ9r5BeSkoK/lw1HmVRdZEf3hIROWuQMsw7wnMg8bJGmLI7Ez+9/DfeuL8O+veIQ/+RGWg+ujZub7QNLWpbsfNkPi58+nwEhJpTm4eUBQuirokNGzagnfW07lR9fTPTDuPOsRUK2LKKr56Hni9ANRoDyw1nK1UA7bthpELQfihVkdpOewyjj9Wdcxugs4wqQzqOMNzB06rQevGtdHbQU12auS69Zc6uiwH9DtKjY8FDTrb9L4CTK61HJSf4JCI6Dt2iWk7vS0rK3mhM1KDt35tJsiegNinSxTZUmetNwioDZt9pQu23T+cM3j8j0laDGgZOuqg1q+CA4exj4YfJ2a2SWigsLAzJV/bG3r83on5o+XjODlGRePWnn4Ann0K7du2x5NhStLw9GgXHd2L/0hPY9uUxBEWHIDolGhF1ohAUaTZbUUVEN6yBzKTzMWDCejx6QSCmPBaDji8W4qPaYxG4/FV0HZpsmvBKCkrQqJbN4//HH39QyFsPS8R8ecjll2sXU8pzS5esA85wSJ5UpfBDdMwSORMeD5ukx9mekXdUZUJr+zFSNWoLa3hqM+JsVPvyG6UJ0x7DqLiHt+fGF6kHbB5nNP578rw5MVLbUGh/NFJLmbkuvWXOrosqHzqwcMbP++mORP1vhJ5qc5b9f9qHbtGso7TnK9JjAPEPsMWAusr4UlWg2/9VMLbZ+xp644jR2KIGnVPoEMTUih1cbOsA1c1M/1bOgcuQ9MSAflhIewzQPDUDvvPOgfj89lvwVMOUU9v5WSwIKCtDrQP7kZaWhksvvRRPvfmU8mqFxIaiSb/mynaFJwuQlXoSB1fsR0leseJAknRxPYTVdDfVn5i6BAcg5tZOeGLWP8j9JB+9Uw5j5qLnceGTjREYZt4xKmNjOnp2t3nmrli0CA9HR8FPSHhlxad9Av46mYUuNwxQbIsqUHz+Et6DKgq1lxJVanNxeibKh0spw2h2zgHUKNbI249Ku7/Ru6JdbqRqdAXagLbonIPeA9Uew+y5ObsnJCJ+HPwAqSrhhI+zSj4LOoDQtjDayf56oCOENlcqPTiNbJBmrktvmatnTWnPEX5CFaf2PlcGmAdyo8G6M5UdhqrLPpplVO/Mtv9NUwEnoupZPcc/vgtmvid+j2qPQqrFtFIlB24Oxq7iJvm+6WkDHNCzg7kLni9NIJU1qeYkVlvgVE/iMZKCtJPgdbCFI/Ae0peB4yOl8foGfThiIs2Rnh0fQkV6bdu2xfOxcSgVhOUvSMBPSHyhA26C9UQmeh1Jx/z583HPPfegcXQj5BzKFlLdaak6WEh6Ndux2UKd6M15cPk+ZG47hqSuzr04jdBsQEtstu7GjN1JuHhYsBLf5w72L01F79d7Y9++fah98ABCru+P4KuvRuEPP6B43Vplm88PH8GI2ypMDmeISUFlGOIpvpPk3lIt4yBF0V5vNk/JY1clnAehdZgwyreqtScZDei+hPYYRjYt7XIjZxyCwbjq4HRmVPlY9ZsxdqPNnJwKTJitfikp1X/kZHsz16W3zNl1EbTXMLUZBwEO+s4GU1+BTj+V9W56CtrytLFVfM5Ncdqbk89ILUlQ/UNJ6BsT/dMGoo7T4/2mmk2bdowDiivSo2RzroljukIqbFoKTnq0qj4OxrRjL/DBcfRA84xWtRqts53eMhKe3hjLcXAZyof6kFgZ0E6+0nq/t9f8dkl69B6iNHIq68dVd9yJHyd/hGv69oV/SgoKf1yEoC4X4vK6Sbjx8xkK6d0htnlz/ni0u/ccw44pOdW9uD5yD+dg57xtSOnVSJHg3EVYVCm63GZBaLxr/4myUity03ORl56HfPF/cmldJRZx7NiXcU3NeFhia6BIEJ4lKgqhN92MI59NR3rTZkhOrmCTnOz2iZrHSs1vzk5pF6qKgUoN7UzSSNWo9Tg0cszxJbTHMPLK1C53Z3asDWKneoMvmVk7K1/+GzTL6MHpTEVq5rq0yyiBuIrlpFcePbI5Q+ag38/F9v9W6Kk2KSksNrGfGdLTglIkJzla0vMmmbO7oOTJpMvUTFGAqa9Zz0xGTMZeGaEslCS1pMf7/ZPOMi0y3DgnEiSlQGprtBq4CuOWU5YR0kxZVlY2B/gxjmU33DAA97z+GnqvXQNLXDyCL+8Jv4hIRAnyaLJxNjZu3IibbroJY159CQXH8xUVpzOEJ0QohJf6w27Et66p2OzMgPa4XXO3KZJjVD29iYINRdlF2PfzHhTnFJFpEVYrXBwzHIf+PIhxQ15DcXExfpjxGR5p3BBBl3SHX1AQChYuQMHcufgy7QhuHjlK2+Vf4r5UZpCv3jNxtyC9L6B1X6a90Z4SoBy0YrqzXKC+gvYYVCHxRdPODLUfuDvnpkeQDC8xS3oOycoBko6rfI7a89NTgWiXUaIyMzjQi9MRJF1l+XWrEThx9zRdIFNR8dl7olJsrrOM74Ujx1RVgZMtksIEzXJKQpyczaqwh/dgcoXGmmW0mTJAXX3teokC9BIzMFMVTQ5GExC9uMAK0qIZ0YrxRKNht60wpi3hit7Y889GNFyxXLGBWY8eVdSVD9ZLxstvvIFPp03DyCdH4ZUpr6LTcNfvGSW8Rn2b4sjaNKTP2YroBjGIbRGvhBYYIfXHXUjp3RhBkcG660vyi7F7wQ6UWcvQ4IpGinrVgcwdx9HAUg9XXXU1pkyZjAEhIQjr2QvWtEMo2b5NSHxx8AsLxbyCAiy46mpt15Up5RHdNL+p23e3Vp0vQAmfEoQj1oakQvvjX6ptKPloU5Wtr/xTU2aQlHwdwdwcRGgPXaLaRi/Q351z4+yxBOW/EbMGaDq/qD2fOFGo4EWmA+356dVr0y4zOwGj3Yr1CD33Iju74SwtmbSCAAASDElEQVTtmCs40pK5KsdFl3r1BJXqw//pbJcK14THmC9X1Rgo5TtTl2vBsWsUKqbTo52ZXsq+DlmguUCb5J3qVHrJ8rz5XQwU7QqDfdWgDY+ORhyH6G1L3wc6adEeye+STkJ66bcqfB8uSU9INWlC2qOq55RK5L777sXkftfhxdBQBLZqDf+GjVCyaSMax8QgZuUqRdq79dZbMX36dCFRHUCd8/UIuCJqd0xErQ4JyNpzAvsW70FJYQn8A/2R0LkOwhPLe6o27ls++5K1uBTZ+7OQtS8LhVm2dIX1e5LsypMiJcRN763F/GnzlWTaM958E/NaNkOZ+NtSsxYC/Cwo2bkTS3fsxOWD7tIGo9PmUqE+k49AaYWzIG0BSwZFG6W/IpM7qxzAWCi9GVMNF/uRPHit9DRTq+ionlPn03sM5W0kDLUwE4PkC1Aloy6rQ2cT2uUckigHDLXagCTpKoGvFnyR1C+e2RhEbWkgOo5woDG65yQ7OndwMKDXrmNwpucuHXz+tP+mfelezb7aOoFGoJTCgrhXmdzeW5AAjCRKVoxwpVL0NYwqKrizvyvS64vyeVGNYOaZUUuhlcq04KTUHdLj+8z3S/t+Uhrl9U11oy8z4Fg5GhUzG10BfaJzgKnJPlH9VhMe0Rn6tfm0IIlXqHVq1ojGbNWnSK9p02bY37wFjhfkIvbvzbBERCKYEpGQqp5KP4q7H3oQc5b8LKSoKejWqxui6kcjItFVqIgNtPVRxelQc5YKMju86hAO/XEAtTomKFKgGse2ZOD4P0cRGBGEyHrRqN0p0dChhdLoundXYfjg4WjVqhVGjHgcw2OjEdWjJ/zr10fBvLkIaNoUpfv34aOMY/jg7gqTtM/EJMCV04A7YF5Iqss4yOmLrLZMJUagysWZyoyFTYfrLG/iYj+eFw36/ED64/QgzHeAAzClPaqLtNlgxjvp09egg8BAnH6HKVnxvJgdh7MsrZcet3c3MTi9KdWkZ+Yl5kCvlTBZSNTZ/WbhUg5edPygU4Fj4KSBnkTFjPQkCg4UagMzifwLE+fkALetKtJzli2E16lVe1UmuugcjwMiEz/r5ZPlPdbmb+Tkg9+NN6noCBKVs2+6skHi5gRRaxtmaA1Jypv8slpw4sxBlIRllmv4jd6P06pkmlUohXpSuJzfvPuSHiEG+p+FtEf347aOZQ899hgm3PM/vNDjMgR1vxSFCxcgoFlz1OnVC/fOmoWRI5/Bq6++ho/f+xh3PHQHurx8CUJizCeldoCSXtKFyYqaMi89t9w6hj+UFpWiSf8WBnuXx+bJ69Et+RKlHNLixYtRuGA+ejRrgoLvv1PINqjH5bAeP44Va9ag/e13IDq6nK2QH8k4ty/AOUgmRg+TD58v4pmsME1vUn6g6koA59mbFlRHfFAVJ2UHByUG1I5RLesA/Rgepr16U2e5K7BESpzqt/d1q1yD4SlUIzvUIyTaW3W2IyHfBfcSGFAlpE5C/V+BnpTHyZuRVoIqM0dso7YfbxJS8H2iM0lV2L2NQNKlEPOMZjkdtUhQrqRZd8FJHN9fSm6uNCWURJkZR+2MchC2yS2Tf8fp7KMHjp3MxvKY3kp33CU5+E1z/GAi6vdbt0bq1i1omJSE4J69WAwPxWvX4Iqa8VgtiGSakKboyfnOS29jyMih6PLCxS4dW4zgZ/FTnF4IEuCu+dsRnRKDmm1dV3vh9hs/WItWlhZ49913sWfPHrwzdAhmtGyOgJSGKNm5A6F3DUbe5I8VafCt45mY9vAQbTezBPlXReokeltRvciwhTOVbFoNzgrp1s2PXS+ZNCVfqmFGw/c2AVdgYUk6ctADTc/pg4RAN2aqjD2JW2TcitqzjB8vbWO+KiWlBw6IlCo4S6U6VBvn5DgvR4YKd8BZI6VGbQD2vxlU++hl25mts0wNThC0pMfn7wnp0ROR0grfV1/nt/QE1MgwS5DWRs3vhBljvC0+rQWdZKjCZ2J+1lnUarX4bVK1T3ujXuajr2BLn8dBmc/AqIYoz5smGYaOGH4b7pAeA1xHqw/4wthX8VLvKzC5tBRFv/8Ov4hwFG+yxaOObJiC+14eg7i4eFxzzbWIiIjE/x75H9o+0hExjY3y0LrGiV2ZOPjbPsU5Jby26wlrUU4R1rz5J3q16Im3334bhw4dwr39rsOU+smI7noR/Bs1RkByMgoX2VJYzj6Sjn4jnkR4eLn3gQ4NvqikQF2+kbRAwzY9jZypT5c72V8PDtGYL43WTdgZtK7znGVR/UYpimoi3hxHoleqFD35SLT2Hr1QB0o7fi624USMWReohWCsFSUjfkQcXGjwNpKEKK2qCUWvYCgz4hjVpqLaWO3a67jXzGzhrkSoDTng7JZqZQY3M/SBkw1qBajy4aBgNPnifZjnpF+Cs/lHNcuMiqXy3qrVss4mDlT9mfUy9mRyNBq2yZW7qfl43/SSsm9zsR8nnfN0lnPM5HhAm7FeQmU1eJ18Z10lKifBeuIRrr2PlKq0qnW9+8VzojZBT11vxAlpOn0TZs09lKpZ6YP3jO+04xuhepmTuBMG+znAc3YUZ+bYwfeNEg8JlNoL3mPeQ5eTW9OkJ6Sc0qysbDoynBI9GzRogJZ3/w/zvvlKke4CW7ZCQPMWsISFIaB1G0yYOgX3PjoMBQUF6N+/P76fvRCDBg/C0U5H0Pi65or05g7S/jyAksJStLy9ral9j244gs2T1uPZR0Zh8OC7FQnvvv798H7tmqjbvj38hYSaP/1ThN5+J4ISE7Fv6ieYVyMeX95aQZs0RVz/VrdOVh8kCj0bglkUe7h/AbyfvfED+wvlvTe9gZnrSHe9iQJKXuvhnnemmXjCfBgnw82CPqnwXLx5xmrQa9coobgenJ2vA3kwTxxm+nPA7LPyFHvhWSYXvvfuOjARJ1zs561tT41j8E2GFXf6cdfhjGOPJ/dRC34z2qrs7uKQvXkEt6LBxcA/SxAfjYzdHMuGDXsEAxYswLnFxYj9528ECrILaNMWpbt3IerGm/HBl19gyDNPISvrJAYNugu/LFmKMWPGYMaIz9HyrjaIa2m+1FCiSS/Q/Iw8/P3pRtTJS8Ci2YuUordr167FU3fcjknJdVA3JASl+/ejzGpF2MC7UPDtHCA0FCP37serCxZqu+PLX1mJpSUkJCQkqhCeZMSnWE/GV7xSWID19clT8MhVffBJs8aw1E6ANS0NgV0ugPVoOiKvuRYT583Fa+PfwogtWzB27Ct44YUXcOutt+Cll8bgj9m/ovG1zRDftpY2v6XbyNp3ErvmbYf/bmDkY0/jxhtvVPr85ptv8NmTIzCjaRPEd+4M6+E0JbbQEhuL/K9nwz+5Ht6ZPx+XPzNKkV41eFqQva9m7hISEhISZxBuk54ggH+EtMdgxlOxHiwndOtrr2HMU09iVNlPiBz9ghK3Z0lMREBUNII6noMng4Iwd8Vy3HRNXzz94kt45ZWxePjhhzGq1kgltOHbaXMR2TYaCecmoUbTWFj8XceR0ukka+9JpK87jEO/7UebhNZ4buAopcTRuHFvIEgcc9WqlShbMB/TWzRDSHy8Elfo1/lcFInllEbprfnrrt1IvegSDLn5Zu0hlsJmz5KQkJCQ+BfA09pnjMFhiZKLHAv69LkKO3bsxJQZ0zD4xecR1K27IL06KJw7B4EXXwK/gAD0LS5Gm7x8DL66D5qEheGnB+7HJiFl3TtkqJD+XsTy5cvxww+LsOrLVTiQfwihCaFK2rDA8CD4B/srMXslucXIO5qn5OwMzglEx1bn4O7LBuLKEb1x7NgxTJjwLuY+9QRahIVi2Jcz8V7zZriiSSMlljBi2KPInTgBgeedrzjdWDNP4O+cHEyKjMaMNypEI9C4P5Cp2Dy8RxISEhIS1QwekZ7dqYVpeeh1c8pTbdiwYXg6/Qg+Xfwj7hQEVnrgACwJCUpuzqLVq5RtUgQZNQoNxejGDVEnPBzH8/Mx9cnH8aafPy7uf70S4vDaa6+jqKgIe/fuVSogZGZmIj8/D4GBQYgQZJWQkIgGDeorxV/379+vVHe465ab0DAtDQ8kJ6FFp46w5ubit+MncEENWwymNScb2aOfRdj9D6Jo4QL4t22Hv48fw3OlwPQZn2szr9AZYbC4zjNVAkVCQkJCohLgcZVre3oyEh8zRpyKu3j55bEYGxmJt2d/iUfi4xAgpKq8D09rCFmfLkWQXmJwMMKF5BW8aSMe37YVw/bswcrFP+CzL2YoRbii27RD27ZtkJLSELVr10ZwcCLyhJSYkZGBZcuWYtKkLTiwfh3qZWfjCnGcmXGxiOh+CQLbtVcSYefNmI5HGtTDhL378XQjW/0/Oq7kfTIZAfXrY9mnn+I9IeF9/sVMbXgC8Yq4vjme3hsJCQkJieoJj0mPEMTwqyA+xv1MhSqZ61NPPY3JtWphyJvjMHb/AYSo7HNvpe7FpFYtEHTueUqyaj8hvTGFWeC+/bjg99/QpXYtIWdZkZ1zEjuFxLi/oAA7iopRVGZFkJ8FUQH+6BwSjFvCwhCfbCs0zgDzgMZNENChAwq+moXQWzojsHVrXLx5Mz7afxBphYUKyRJleXmYuuRnrOt0HqaNHy+kxwo1ShmSMdKb+yIhISEhUT3hFekRgvimC+JjRnBGwZ9iN8bFrWjeHDfdew9er5OIJuFh+DHjGLoLiSwyIEBJXVaafgQIDYE1PR1+MTEoO3YMYQ88BBQXo0xIh+dd1Qeds7JhiY9H6dYtCBBSXMnGDfCvVx8B53RCWeZx+EXHwD85GVYhAeZ9MAnBffqgeNMmsay+0i+lvNd2p+KtFs2QU1KKkXtS0fGRR/H24Lv1LofxCndIO56EhITEvxNekx4hSGKcID7mq3tf3eeFF3bFp0uX4ZGHHsQ5O7ajrpDQVp88iX5CmvOf/qnYMhBht9+B3A/eR0ifq+EXHgHrwQPwi4qGJToa/imNEBAUCOux4wi4so8gtqMIurynILOjgiAzAH9/lO7bK8gvEwEtWiCwXVv4CWmQhW39GzVC4eEjmCu2Dbb4YenxTEyyAi/N/lqJ29MBs1kMEtfirMinhISEhMRZDJ+QHiHI4mNBfMwGwNRFp/KD0dlk+sxZmDVrFj4Z8yLCS0vR6rc/cP2OXXg8pQHqvzkOAQm14RcSgsA2bWCpVQslu3Yp8X5+YWEoO3kC1uPH4BcZiaDLeiD/s2kIaGRLmM4Ac25fmpambFNWVKTY8rJKSvDB/AUYv3cfmoo+GkdFYcPV1+DLYY9oHVYIOq28KtozUsKTkJCQ+HfDZ6RH0PlDEN+FsOXrS1GvGzBgAPr06YPXX38dv018Dz8WlyCsZRscWrQQV0dHodf2HYgODEDpsWMoFVJhQPPmKN64Hn4lpQrZFf26DGWFhfBvkAJrTi4CGjdWkluXFRej+I/fkScIb3nmCczJEOR3TmccLLbCmroPzXv2xNOjnkPDhro5SpkvkV6a2hLzEhISEhL/QviU9AhBIBsF8TExKcvMXK9eRy/J0aNHY/Dgwfjrr79w3XXXIX/MGHz//fd4cv5cnFi1Gq137UH7qEi0zM1T1KGBFgsKV/5Z7hgMSj8oCHCb2GZdVjY2FBQgoG1b9Bh8A17rew1iY2Oxffs2FAtiZd08AzCrzK3ifF0lnpWQkJCQ+JfA56RHCCJheZwbBPmx/hTrmMWr1ycnJyuNCA0NRb9+/ZRGMtu0aRPWr1+HqVu3InXPHhSkpyselxarVbHhKcms4+JQr1lLNBfS4OVt2uLx9u0rqC1Z6NYATPrM4PoXxHn6smCihISEhEQ1R6WQngN2z06W02FZnntdHY95MtsKiY2tkrBUtAfEeW2prANISEhISFRfVCrpEXap7yFBflR3skbVZZV9TB0w3n20DDiXkJCQ+G+j0knPAUE4m8R/PQT5kfSuE435wVgMkwUzWeSxJ/SLGpoFiweyyOp39j5ZqLDUvmyR9MyUkJCQkKgy0nNAkM8S8d8SzeKPBBkyNUp70c4VrR1sFdrpARoNGxkGwVaxmEUtmQyaeTFTRSOZMrHnX6LvXFWfsyrvKiQkJCQkzkZUOekZwe5UstreKoCkKB1PJCQkJCS8QbUhPVeQhCchISEh4S3OGtKTkJCQkJDwFpL0JCQkJCT+M5CkJyEhISHxn4EkPQkJCQmJ/wz+D9Py2CS1x57UAAAAAElFTkSuQmCC;" vertex="1" parent="1">
          <mxGeometry x="-303" y="-720.5" width="289.25" height="71.5" as="geometry" />
        </mxCell>
        <mxCell id="ygvrbI2mlTMdxTGw6j8e-4" value="" style="shape=image;verticalLabelPosition=bottom;labelBackgroundColor=default;verticalAlign=top;aspect=fixed;imageAspect=0;image=data:image/png,iVBORw0KGgoAAAANSUhEUgAAAL4AAABkCAIAAAC3sx2DAAAAA3NCSVQICAjb4U/gAAAACXBIWXMAAAsSAAALEgHS3X78AAAAHHRFWHRTb2Z0d2FyZQBBZG9iZSBGaXJld29ya3MgQ1M26LyyjAAAIABJREFUeJztvXm4pUV1Lv6uVfUNe+8zT33GnoGm6WZqQIMoCCo4QSIIDmjuvXG8hht/eYxJNIqamChgNFGfIIrRmKiJEMUxVxENOKHSQNM03U13Qw+nxzOfs/f+hqq1fn98+xyaZjD2k1y2ec77nD/Orm+qr+qtVatWrbU+UlUsYhG/PviZrsAiflOxSJ1FHCcWqbOI48QidRZxnFikziKOE4vUWcRxYpE6izhOLFJnEceJReos4jixSJ1FHCcWqbOI48QidRZxnFikziKOE4vUWcRxYpE6izhO2Ge6AhAR5v9SBntVEJECClCjkEhUQSAClIhElFgJHiBRQwSoAET0q+umqqr6uJcQgHjhYUedOv/Pkx5SgBSkgKgaVWIG4AFaGOT/9c31H8UzT53/aqgaIgWIAAJ0vveUSQCBNwAJsZIXJhCRMgBVQEFH97DO9/wTeo4IRPrYaU/Nt8fu16CxQhVKAAh01OOIdP4nPxnRnnn896cOFd3SgBIIQA5nwEaIQSBOuTjkGcwAQVVJYbggG3CUuHgS6GO0Um4Q4kl7WxUCgBrkK85SguCoqxQgGMADHjC/4pbPHP7bUkdViaCqAgAwBFVRFSIDEHsPEgWRkpJXhlE1YFFVqLITeE/WiJU8Z2uMoafpOQJ4nhaAQhlExSwJQBVFTVRFmQxYRRqMLmZLGFUlLtinAAsIIKIG0QEFBDD/1Y32a+G/LXWIVESgqsxEKiqqAlDmc2NswIFSYzoiSAwBMWAZUFVkngiGDTMpG1XgMTnxmPiZd+smggcJFFBRKMMAEDVazHpgVWUCiNWLhweRqjCRqJISGvPmvOIFEFQAL9bwE5S0psF/W+qoKkHBDCUvwiAmI6DI2mIGc8B4lhECYXugVjdIW40xHPaXbBSFkmfCqh5sLKAqIF7QPBogonn2NAq1kDLEpChUZRHPDCISFWZjiEDAUaqQkhZsS13NS244qKfJTO2R7vaRcthPAJADBmqajTy/wdQ5arHSGP2AziszQkRemOEJgIjhgNgwkHo8PDb7wFT20JHq/QemxhLPpmW6Cl/icm9skmRtK73h9KFzu8oEVQDqRMDW0uPUZgG4IYTICwgwSp4AIFggLQCmRpc3NGcmgUt9NU2rWZ7keTZVP+RoLgi5Vpt2eW7YzM3N5On0GWsvq4T9gBSatB6jsjcBfqOp44D5ZZMUs5KKgg2xOoXmFAaaG+MNVxTYPpP+/JHxOx46fMf2vQdmq1ovw4R5NgY3FZW78taOSnV1XgrvfnT8xw/Xb3r58PmD7Z4SJccUgQAVJagyQZQcEFBBHfUgghqDQp8lzOtFAkCzxE1P1Y5kSX2uNnVwdneWVSn0s/XppFZrLZfYhh6eQ8ShtTDwRuNkSc+StvIQkKkoaQSTgaTZjHD0jMdhHa+hQgEHBcgCpKKkXog9k0FOoqokxlowgIcOz/3TL/d+5769m8dmstSVFJ3hTMCljEiciyTPjNbqVfhy50mnB2tX7dh14IROfO3yNWtLNKUI1FTUKRsQA0JQCCtAnKsPiQAu1FjkWqtlk9V890x94uDE4enqRD2drSaT1dokIKUozDVXQU9Pb1xqMYjLccUgBIxXT0KRjZk4SWdXDq5b2nqhIoOQImR2CtMQp4t2naeCqtLjRXNB7qMLVQRQkBFiDzj1lr2BkErgjRKIAwIz8MCB2S/+bPe3f/7g1sm6Vjr7K22lKINFjSrqc6h4Y32uLqjHJkomjuze8rOl3eHyE4Yefjj5yE8Pf/rCoQrBiwoJkZJaBaCF/pQz1dmEU3Ojk8nWqsxNzu4/NLt93/iDc9khRQyJAxuYICpH7W3tXXFYKoetUdjOBBGxxIasd8jFG5ORcmhLbI3L0qyWcd4BUGESJABgajZNpwmp80Q8kUyAevXCDiBBACHmgERFBazMAYAH9k98+a4H/vHB6p7ZaouhlQODWUgG0ASZQDyxOkMCIDAm97XEUKlvMDuyf2LbprVdPdM97f/4wO7LVseXLu22lHkODLIciZEyGagoWwWVFJjN939/46fnaBKsmSqHrqMy3BYvD6OSMRwEEcRaDVQAGJcRs0LgvHPkQARi9YiZoZT7JJfZlkpbZ2kYAMEes6ZrKjQldR6/FH2CfFYiQGA1IhGoELFmjjjggAHsmZy78QcP/OPdh/bOUNzXsawnDDlQF0Vz9XpcS2LYDDZLFZIzvJXAGetjRc1k2q5x7vLaDLWWD09OHb7uTvucq7q7A4ISYB1ShgoELFCrnj2jv+Pk/sGzfrn32929vR2lQcMUUURJxE7ESZqoYVUSq4FCHI8HbIkCpgAIoBCYwEpgOM1FKAe0ozxYKXUDR9sXm2KGOgZNRx0iUih0funbMOc2bGcAVFRJ2ZhcybC1PhPJOAxBmElqX/rpnr+969Eth6qVjpbVJ3QGaaa+7ETEzqKSIs9LWQA1zrDJ4lhzgRiXZQFHpkKzrt5qLXh2Ziyk9r5S/OOt47ftqP6vkyssHmqtVTYOaohIPBRzBLbUcs7JVx9MDkxW9wRBlPmEA2c5z3JmNmxI4EBaTD1EBg1DzvzOCLOXHJoHppyyT5O83DIMWMAV1kuAAFFVouYyCTYjnUmIVAS5QCEkChUVgVdAxVNCXsixo9xrCkMclB3Zb24Zfc1Hb3vrl+7bIn1961eOdJbD1GXGT8cHYlstVyvVLMiiNkYQe4rIaVR3JiABEVgj8qEtBVEQVWcmZw5vj3PT3doNpS/fvafulJmFEIiBFmZoSwxjnKEEkvWZ/rOXvoDy3MpkG3skh1WFAsA6sCiJiHfiidhQWamkCASsRMxs1BpmQUtgWF09RNzetgQFWSCAn1f2mq6nmk7qAOpIiEjgVdgITJBCfIaI1QJsOMygOWchcUgBgE2H9t387Uduube2P27pPmVpZ1zmuSOUU52jnMutJjk8p/lMfbC/xxs4nZgzTEpKCZETwzUEigxpRqYUC+dh69zoWLWyL+4ebu+e/f7m7V/c0vl7p/aTUZ+TtyYAF2JRfQtxDggp1vScv3PJPbsO3zPQPWLiuO5ciUsEUaHAWiZDakRB5NkUBkNiVsOhUROGkdEKyAUGldYlraUONORTY2/rP7J7//8eTVcnVVHyqsQIiCCMRANwHLIo0oQIapQtGwlhPfRTP9v20o/f8YmfHPI9/QMrlrUQ2fq4y+t1LrGJIvUHJnvqLn7VxeMXrbolmPq6QwlkCczSquSchbcUEYc+qCKdiWthS0dF4+lDu+o6212qgFrfd/v+bWmhdzgWEUkhQkJEVlFyiD3lEZfPXfmqvsqKmXqS+s6SrUByEWUmEVUPVZrfRxURMUQMQ8IwKkLGCFMsLm5vGbFcgQpU5vfMm1RNbiLqaCGY1QTOUFbPvVpGqvjDL2955/ceFYSWHYmI5DGjjNK2vRNXffw7b/mnB47ICSvOWN/eLaX6nM2SPIskahduC8L6TD7lku0ffPHBN5/2oNv8173T3zbhtJPApLkGzlEp9tzuEuGytpcsZbaWlvOkLUI6Nekm97dx6Yy2eN+uwzfcfdBDDaXGGSKbayacssmYM0IG9QD6K6vPOOEiR95TnSUnBpvCo4IU1JidVFWZyBhiBhNRwJY0AgJDEdQGtgzAe19s3wJowt2rAs00YREB8ASQt6w5DMHP1rLbNh/cP5u+cO3gC4dKgaZsSwBuuWvzu76+8+FpO3jC8q6KUJpNu1IeaayprYvJTGonZnNXneK3XFR92ZkH//4fvrVzr13bPdHq/2WzfWOqbYHd1q79kkRZPjs5d7jGs1oNOONJf1BA0HL1gYdkDXq7l3SlE1/8zgOvXdlxwbAVSC4hsyVKRARKhi1RDOCXm2755i++EK+K2rrb8unUBCU2LOKhDBGmwsjABGIiImZYa4LAxoEJLVvxPgpCywGQE+tROnKTolmos7ALJSIZu7KxoRKg2/cf9t0W7d1/8m97z7hqdU9LNFvP3/HNn37mjke596S1J3aa5Ig4rruqckS593UbxpmaqWoQTh9ccvmyXf/jeY9+78fbf3rP9tJAX12j/pnbJ9p6N5fekI+PcTI1NxsFrN2VaHkr2gd7OOe0PsOlKEn00M5Nhx78xf61Lx0ZWjrx80c//a3R89602nDOSA0BYohiYgJhrj51y+0f/crXPxj2Bs87+eWasRBbw7kTg0LNLUTIvIGKQcSWObABk1VBaMuJm4W3LWEHoERM1KQeXgtoFupgnj0BE2ngVQNNYezdh8x0zQ4sMxsfrV2/ufr2deaPv/jzL9w/1rdqXXdnNJHkbi4eLBm1Ht63uTwLS3O2VEk7eNp1Rftf8by7x/Ztuf32h3rjroDjas1GrD38taXJyRPV0zqGHl23oevM/s5nrVre2xK2lTghJeVQKc+T6dp5D40e/uf7J380kVRG2r61Z9ftY12X9HaFftZlhoMyMQC5d9s3PvfV6zc/+uNVa0fOOu95lbZSnkgQxt6LCmAMU+F8IwCLKBMAJmZlA2V1IPaMKEC9Ne6Jwg5oqOpEPLN5gi20idAs1DnaJ8qARQEjgNk1lSdcbtWS9MtnN++87Rczjx7xS9ef1WK0lu9Pq1GFWlNJvKpl6y1ncZoLJXMt5Xz68gu2dncf/PY39oxPTA/1LmUkZGccl3Vy12r7j//7Tb990olndlV8qdEI/ihfqsIK13baiv6L19dedvP3fzozCaJP3bX3gld0xWxtXAJwcGzrP3/3+u/+/EtZUN/w/HVrTjmXTXs1yY1oqLnCqGEqtvVZHTErWByMgRpRhQcRI9Qo7ogRZ961tq4OOYIXkJm35TQvdZpITV7YbxZyahgIxufq2w4dpNBWTdRRCUu57Hbh0PBwSdIplyh6uiKJTc1pLKKwSWaCoIpWmZ6IqyMnjT7v5Hsf3bxjx0Nj7W1xJjWhalAORMIAg1nywOTY3w9VXAlGNfN5ChWvuXPO+0yRiVBa906zzvb49y84k9Oa4b477py+deM4qDSXTN/6g79519+85LY7PzuwsvvFl122dv256k29nuSOAeOcGGtMw1NLVch7YrbGhN6jMG8ye2ZAUkPlnOTI1KgRIhCYmMgY0yTbnE+FZpE6wLwXMTOJAwDCo+MTD0xXO7r7SyQudaVyy4r2IK1mdRYir3WEtl2i6SQbZ+5wecLhbJnisZm2jvLMS9f90tcf2PLQbnVBubIEmPa+pq4lCGLScp32/83n3xuYJZdeeLVXa5icU4EaS0SiECXPgUnVGEqvOn3ge5tO/fuNqlF26zf+oTye3rvrx3fe983u/vg5Lzpr2arlHLTO1L1xzjKY2XsOTCmX3LAhshAFAyriyZiATcZc+LvCs8RgCB/IHk05aY87UexakZBSM4scNBd15kGkpArClsNT01Ja3hqXXFaLxHsJ6iowmfWh8wg0UwWY2IDqkYtMQgdNPiHm9d33b4h+eN8jE7sn83LURgIwiYYiUUZVlwetpc56PPblf/3oaWtOWza4XjVhrjJKqswIBQx1gVVKbW5KocWfXXLWnv2fysNvWvPg57/1iLbgtPNX9A8Pt7UNJi7MM/XwEQnYMJHC5pCQSFQU3nJATEbhxYn4MKI8T+BgbcWJRlFbLR9/6NAd6wYvaCn1IYcaj8byqqnRdCJRVUgME3vxmw5KKWypwBmSGFRhckYMpMVxYC3iPDe5lxAmJspIyWZtaV5aMbD5zJX/cKi6c++ualYrmagLmqmQaBubmFGzpsYaj4ys2Du28bqPv2VmdowoZMSShaQqkkNAGgGRjUxoMZ3s3z36D+cEN66v/yiiqeF1q8547umDq4eDctvsrJ+ZSz3EQBSqcEKOWIidKClIVb2IKhTKRjwlXhM2UNjU+6DCPjYPH/rFwbGd7dEyKMRnDq6pF+XzaDqpQzAKBulEqjumuae1JTJw3pVgyEKMN0BINjMskkMMGXJI1JWdZDB5F3Wd3n9Pe+XuHUfaRvdQyZdhjfcJBcrGEmXqoyAwarMMJmw3M/WqqAKUa2AMEbOoGm40y4HJHRu3f/Gun3x/+4HtbR313tah7qE4HoiM7ZWsDOMZdTKxVWJ4y4EHQ9SyBuKEQDYwYKh4lxCHxlhjLNSTNWwCIoWp7p3ct33/T7s6Vve1rAYAC4JVLbxmm5o/TUcdAMJkIKNz6cEa97SX4hC5M84wGW3JKGOrEZVyqGv1YSZpDldWeBvnVR9ncweHw41h1n5oT1T35R4biSQUkMAxcp+ngS2ltWqpQlMTsxXt/aO33tDR1gtJLBmyBjCGMJdO7dx3972b7rxv80/2zt1dp/rw8v7WgYGopa0lriQ5eW9URU0eWMA4kcyiDBgPMBll8upJIxH1xhVsB9RLHRznzsNLa4nB/pHRnXtnNuc8tXbw/A7TAzi2VkEqzb24AtCE1BHvmQHiHaNTk05WV8RLSMQhCyFwxlLknZfUO2M8+3LN5ibPKoZrNt5/MB6MfrLCbZrWnGa7IockzA3qxlrJLJBbDtS7MIy8l7mZ6QvOee2pJ70AADgmIHPZ7oMPbH307vu3fv/BnXfVk4mopa2zf8nynlJ7XytskJlwzgcmF+W5sBxlTkTC0IbKPteEYRmWwIBzpIEA6tRnQMVSaFQkdXmQVQIucbmWTI/NHBxPHknC3bHvWlZaQyAnYkHETeqgcwyaizpF6DYTA7rtcM3DlyPMplk5YFaTewHBGJuRistF8kw9x5mFnajTof17zuw74Z2XnDZ7uH3PxExXt4wd0DSNIssqgagy2SIOXMRPHt6/evlpv//6PwMwXT0wemjLrtGt9z/8w+177qq7I2TiUmfbko6RqFw2URTExjlxuVf2MJm1bKzxLg84IAI8FF5NQhQThYCSlKyNjE1Yy3CxBnVPB9S3BzRQiQyZsbG5bYcnR5URtVNSq4R+qKXcC0DFgKEQZtPkIgfNRh0ARUTBXJZvndau9taS5cQpqXoRUlghcS4ElUychaVq7Mu11kdmZ8bGZi4cXvLJVy9f09P/tw8PjFUfHunToTV8ZJfzeZhzDlFnc1VHJGyptaPUN9S67eAdu36yY/uOn+07tHnOHyFrStFAZ8caW3ZRxGHYprYmnGY+YrVEzICBeBBEVJUCQ6qqnhHAlYUUZCwbkHrnlSG+HtqS5QgwYgU0nbj6+NQjYzOHEeUl2+kyllqwfMm69ko3AMOMpg0xfwKaijoK9YUN5EitOoWov7OVXR5oaOGJocamIomFKuVZrobKWpqpTuezR97y3FOuff6y/ooCLb2lVdt2/QBGWrphA01mxGnKFHlh9QGUbBgEgZ/Od3/yX/44q9VDG8aVcm9phY0MG0sWFFoRyXxVVcnYkEIU25YqEPW5KnMQBPCqpCJiDVTFiycjSnAuA2wYhiYiMs5Ju0GQ5pNj9U01P+olsGFfXArzaiKYiVmHu1dbij0S0hBEIgve7E2N5qFOI7OEIQC0Yzyppn6k3cSqEoaaO88qgM01BnnlBBrGeqhe35nk73/ZhmvO6bWoiYC5/OJz37l7388ePfhQz8C6cmXKcg3U5p24XAnsveaunmROUWppazVdIauxUSTC5AlmTsiRxgJjKGeUxbEYEJTIk7KyoTBkVhUIw6oC5DRnOGarsM5ZEhvaEMYQWecpqR/O/EQ92Q8SBC02MATnfDWOSkkeGC73tSwDADjiEELUhNEPT4ZmU8ekyHDz8IQnpjI7a9FipRSwJWIvRiQUVKAtofUZOpDXRMuVikWeiuZ57F3e0XLCZZfcWJ0d3LftsKu11RJTnasl9SxLfZLWkmTOpzWWQPKAiZkdKcHZPMsS77xvc9KaZirqCkcJQz6gnJCpiioDgXomtVADhQi8Fo7uKkIi1pgwKgcU5PVsemJ6z9j0lslk45xsk1KKICDy1irlWZJMK+t0ljGVO6IhAIXLM6CARyPzQVOjGahzjBecTDuZmC0Ntgbl0BkHFSEjMfnYcmQIMbsoyJ0tc0fJtljFn3/vnq1VjbjiyXtOVdzJg89500s/mc1N7h0d13xJXi8l9ZCkxHnFILam3WVBYIxFJGmJEamjkK2xufc1cTmUWWNI5EVURRQQgpCAFUzqvRMoq7CIMgtDDAhwxFXB4blkx+HZB8eqG2dlWx37haZJreXOms+mp/anE1NakoA6vaNcqz2VpSXbCgeSINfMkWf6jbAINhF1ikwjDOhcmucaV2I1ZQ4ptMqeDAdtjEqAMDRG4CIgCumIrQ+0l0bH3Qe+8/BMqqXQMRWxS+lzz3j5777iutnxtDY7a00rGfFSZViCFXJBKN7PeZ+rD533TquKnAWAWCbLxvtMUAcriJ0rXPuIuSAKU5FOhQSci0/qMjHp9k7m+yeSXYdnN4/XtlXlgONZcF1VHLXM+WR036Ye23nx2j9sLa2aqI2WqVTLZtnURrrWh6YCApEBqTCrNqImmhzNoOs0mkkLlygE41k6p8lAV7dl70pUVjcj4gyZ3LMNDLvcJZW2cBrpvn3TtRSIu7/0gyMXLZ34vXM6DTlVEXGG5eJnXXN4fO5rP3x/T3+/DSLy7KHiIwpmCaTqRMUYA3hGI8CUG0m5lKBQEu+NBVRyl1obSJ7CM7joZRWfaZ55pI5cxi4wnokMBeSsUbZoh7dis+l8v6uGZw+/8iUn/96S1lNs3P/wfT/3pSmCC6l1uO8MwICUSA0igIg8mt7PC81FHUKxMt0/VYsMDZYqPk9mKz5T357mczJDpbLm4VSiVR9PTtUemcwOzehIK845pbVyQryirHC5Gq8w6ks5agHjyhf94djM1h/88gsDA2tC2+FlmlhFPYQsWzRivkjUkHg2AAheFAqGqqrPM3XMIBJQKl5hQMTeCRmIOpicjBhGi8SMQLhOQQKNAt8K8inNTk5OLimtuuzMPzpj8BUMhuTP7n/RzhWv3LTztq6w0ttycke8EgAoAxmCnc/W0ey7EGgO6jRAICJKvM76sL/TdWCc4jDS1rHZOE/SqXymyrValk3OTg22VNYMdb5wKfo7lpzSF6zqCtuMJYX4IiFk3VgGWlQlstH/uvT68YkjW3bf1d+/molEM4CglsioCkSUCMIEUhYuUiyJErOKKkRFYcAM5z2xF0dkhIwSGWYwG8OhYYVmWV7lsE20Iwxz8UcmZtJIzHOHXn7RSX8y0HoSxIlMw1CAjouG37J9zy/21+8+vf+yduosXn4+1hMAN4ci8SvQFNRpZNsgApBlTpVbSy11n++ZyOvJIaoEnpOuuH5KW2lla3tr1DrcVh5pi+LHpUlTIFerhJC0okghXskz0F7ue+tVN/zlza+emNjT29MvzkKYmRsRnAoGCSnA6iFQCgAwCcFw4fvBBa2VtGgvYhWFJzbMIBVK1QnU2lCMSzGd1Gs2qa3qeMHzVvzPs4dfSGj1qqxgbfFqoDJSGX7eqou/tnHziq5zmKHilIjABAEcUfDMdcWvgaagDhFBtXDwnKnWdu8b51KnxpJqbV07nbKqvSdsK1lqMRTQQmK2xHlhCnKwJwrIGZcbCsWIkEAtE4FUfGCoPtS99o1X/vWHPnXVzMyhtra+PIMaqDhAiQTEjf1GMEhUSURJvRITExOJghUotJGGXAITEYnAMxMHwigj51q6N6G0F6desvaPnr38RWXT5xUkokgcIrZEksMHCLIzBl9ROyQdwQAAkAMFKiB4kFMNmn3nE0Az5Nfx3htj0DBl6N6xid1zeW8lbquEveVS2DiL5lMxIi9MLsymyGxhGaqEIvrEqCpICCBiUa+ihkTJENnv/fxzN9/6/7V1tQW2TZCzzdXFqsIkIOVAVK0UTueWQF4gZC1YuQilYjXGkBEL5zVUm2mQEbEJPFnkeTo7N94e9z/nxKufPXL1YMtpAFS998LMIo6I2bBqDmViUrFZUjcBrI2ISLWRd/JXpptsnvw6zzx1FtqiiLEWLAy6Rs4sUQVZUiIm7wWsDFYiKvLwLaztixSO89eqSmFhUzUiWeFd9YVvfPDrP/yrrv5OE0biU0sBIWZSD7XEhLoigg2h6nwWBtZwpuTYMpi8CRSh8xQGjiMn7DmARzY7N5cnaVvYcdbqy5+/9g1L204D4MUzQRXcsA03UpgWCSgBEFGhbKkK868h+xep8xgabaGqRWZsgIrkeerBaCgjsA3rvKo0ssY2kgY+Lsne49YlUmjAqgRi8TPWtmW5u/5zr//5ti8ND50uPhQeZQrgYiFhssLCJhdKYYXZkLAJiQJyToIgyPOciAMbGWvIJHP1qVoybi31dTx3df+znnXCBev6XkwgSO6Reo6tWkbBlaN9b4rsyhAtpsDCAfnXmJ8WqfMYjmkLlWJ1WqTxEhGwoaMT9AMoFBM6qvJP6hflvQcURkgsAyqObDg5e/CGL1zx4O5fjPSfHpg410Pee0hZVQkwQa4mB6sxAbxV5GQZQaisSjW2NadZbU4ln2wplXpa15+28pXnrn95X7yawVBRyUCe2KoGImCmp6ne8WWWXKTOYyjaYoEcolqsMRYS5x/15QQshNws/Hh6FHHsTHX1ligUFTa859CmD9x01ejhrf19A3FsbCm11AvvcjdD1GZtxYmzQc5cdy4XMExQTWeF0noyWyrZkSVrVvZdfObqi1f1n9ES9ACAeEUiMMRhkaS0yIis9MS8Uv85zfWfe8/jQ9NRp9j94yLbIyC+CEsS0ILvHKsWTCoWzE8peESUGepJkDBDNVI4wBuOd+7dcuvt127e+X+ThJQCEyUciIJBEdiYgAS1LJ2zcWuaZdB8oGd4qGNtd2ndaSeet3rZyT2VE+ftmLlmFqQUekWmApUSSJkSRUxkjnut9FTxe4vUeQzz1Gl8AQRFgmsU3+tQKcKRVIgAmKLCDf0XwNF6zrFtrd4XSig5T8bmTAZqRRImSxzkkj+870dbdt4/evDIwfEtmZtgmNRNqcniqNVlUWulf0X/0krU2tY+cNKqDb1tyyphx/znHZyKqBgLFvgAAAAOJ0lEQVSwJ4KKFRBDiuz+Sg05aeb7+El5ICLzus7jsJB284n5N7FInaNxrK6jxWdaqGhZoKHTzCdLb3RDkbpmoWShlec/y6BF1m0RX4T+iwjP66Uo8swtpFiHTFcnk2xOkWZZwqxRWIZGUdTaXup8YoXn0/erQgiqJKRGlQt3sEbWOi1OFGZzDEVEGhHBCyXF5qrOf9tGVRiF1ehJWLJIncfwROpgfkTOD1ZaYMlCuao2rEEieHyqyqJvjDHHaESiC9o3tPi+x9H691OjyG14lAiQ+S9VCQrByFzoVIX5aaHmzjlmXqjbAoeKow3GN1Lckj62XU4EeO8Lk/fTN9cziKajDo5q4uKQiDBrYSibJwrNT1d0zPnH/DNPkWISJJof2YWK1MhyqUKFFUCNigcaX1gjEiGjZCBgNDYj5hMrNBpNVQFighenCmMsFqanJ1tBUSOqXufnIyJWeezGxU3n1T7VZpY6TbER8UQcJXI8c7Gb7AlUkKbouKIRj5qhHmMSikSnEAJDVIuZpPGNFwUWvl1WjHs0riBnDDcYJiiid0lURGAWcrNJw2YNEBjFrEpF4jdaEJnGGBVVKBcbIoT5YeAfL0oFADdyBi5MoBBV05BkzYtmlDrHyPknvYRA8942DRQSXkRUYe1R/i7/Cf4L4r0/at7kghyPr3NGZJjZORcEj9u/VC9KYGJRIRKixnBVdQA9TUrbp1KuF6XOsdB53ZKIiHhqanLXrp0dHR1QeC+BNWmWWWtWrFxV7F8xc71e37FjR5Zlvb29Q0ODQDHREEBj44f3792rREuXLe/s6Nzy4GYbBKENCvUCFKh4Is3zLM3yFauWx2F520Pbw5BtWHxACypUy+oDQ0Ndnd3GsMzr4qpapBTdunWLqmRZOjAw3Ne3pJAoxhhVfXjHDvU+y/K+vp4l/QPFbhYbIrL79u0ZHR1taWlZuXJVqVSemprav3/UWmuNWTBwVmvV7u7uoaGhZ643/gPQZxpFykVVFRERcc4Veu6fvetd3d1dK5YvW750ZOnI8IoVy4aHBpctHbnyiit++dOfFpd85IYb+vr6Ojo6rn7d69I0K26iqvV67corL+/p7uzp6frud797++3fW7Kkb2hwYMXyZatXrli9YvmqFauWjSxbvnRkaKC/r7fn377zrc/d/NklvUuWj4ysXDa8YtnQymUjK0ZG+np7Nmw444v/9E/F4zLnncuL/z/5yb8bGhgYGhrs7e264vLfnpwaV9XiVTZuvGf16lXDQ0P9vUvOO/c5hw4eVNXcOVXd8tADp522vrW15aKLnq+q3/jG1886a0P/kr6R4aHly5YuW1r8Levs7LzmmmuevrmecTQRdXS+41V1bnZ2w5kbnorug329d//kR6r64osvKUre8Y53FNc651T1gQc2dXd3Amhra92yZcurX/Oapxk8g4MDWzZv/p3LfvupTrDGfOrGG1XVi3iXqerGe+/r7OrGvHqycsWKRx7ZparOqap+/BN/U1xYhHB++MMfUtXixW6++abi0B+98x333XdfV1fXUz30xhtv/JXN9cyiiSasAqpKRNu3bx8d3Qtg3SknX/ve95FhQCfGx6+77vodO3ftP3zkK1/5ytr1p+4d3Qugo73t8st/hxrfFSYA27dvnZurAjjrzDNWrlzxuquvPu855w4NDo6O7vuLD3zgwOGxZUuHr7322rb29oMHDpxzzjm5d3fedSeApSND73/ftR2d3VNT020dHQf2PvKR665/ZPTgX3zwL85//gUnnXgSTFCrVa+55prJiXFLiKxJvC9V4mKfpLCK37vxHgCtcaSEuXr6+c9//g1veGNXV5eqbtr0AICWlspLLnnRZ2/+zMTExMUvfMEb3vhGY83M1DQxEZs0zcMwuOKKK/AU6k6z4Bmm7lMMo8/9/WeNYQDXX/+ho8uvuvwVRbVv/syNW7c+VKmUAbzwwvNlfh4p8Ofvv7Y47W1ve8uCJFPVrVsf6uhoB/CqKy4/+vxPfvzjxfkf+MC1x9TkVZe9rDj0tdu+XpT86Z/+cVHSUikN9/cyYeWqZfdvvq84euTIgdNPXQugrRKVSg3/kRtuuE5VJ8bGf+ucZwM47dR1ux/ZcenLXgrg27fd9lQtk+f5EwsXpc6TQ+cH2Y9//CPvJTS8+5Fdt/zrLT7PW8qV+++973t33BFH4aWXvuTVr7n6I9d/pFqtMSMMzLe/9Y0kd/V60t7RUa9Vb/nKLQCYaMOGDUSkIsQA+Etf+uLU1DSADWedg8KiQywi92z8JQBmOnRg9Pu3/9vY2ASzDaLgJ3fd+e93/RjACatWn3HaaQD+/Yd3fPSjHwNQKZc//alPfO3Wr/3zV78+NTk1dmSseIUHH9yybftOAGefc/bVr3vtH//pew4fGvv85z7/+2+75sCBAzt2Pgxg2bLlA4Mjs7OzAP7irz50z6b7R5YOixdm86xnPXvNmjUAsiw7ZhHXdHimufskus7U1MTznnseAx2VaKGeC+vRpYNL9uzaISLnn3sugLZSeIxAJ0JsKGAMLOm7755fqKp3TlWdSy+99GUAwiD45te/oarOZap66NDBs84+E0BoASCOgjAwURgevaT/6xs+oqpjY4c3nHkGAGvsX/3lX6rq66+8sjjhppv+rniFz9x8Y1HyP17/WlW98sorABDw4x/dee+9GwtR+vY/uEZV3/ee9zyxO5YtW3rTTZ/W+UXD0zfXM4vmkjoFHnrooQcffBBAkuYnrzmRA8vE+/bsm56aao3D0UNHbvr0p9/y1reOT00BECcrli2rtLUmSQpQS0tp7NDhqYnxLM3WnHjiqtWrARS7Bvv27tu2bTuA5UtXrjl5LYDC4DM6um/Hjp0A2ttah4aX3bdpMwBD/pQTT4oq5YMHD7759974B29/O4APvP9992y8l4ATTzjhqquuOnxgX5LUijrXqvXinzt/eGfxz4rlywH87ut+99ZbvurFX3/dXy5fsdyLANiwYQOAP3nXu7t7en/wwx/Wk3qS1IIg2rLlwd2791xzzTUnnnjC+eefv7CL16R4prnbGEYi4r0vxtmnbmoM3Ne/7tWTE2OTUxNz1erGjb9ctmypYQJw3nOe/a3bbl29ciWAM9ev2/LApomJ8b1794yOjs7OzPzpO99RXP62N7+heEQxer/5ra+FUQDglVe8sliIFY/79E1/V5z/+//7jTNTE69/3auLn+94+x+kSbJv757iJrfe+pUwCArhV4qjlcuX9/f2drSUKwEDuO7DH1LVI4cPrV17MoBKufT1r35FVev1+iWXXAyAgMLPuqen+/77Ni68vnM+TZNaraaq9228Z2hgAMCHP/xhfQrB0zxSpynskpjf9C4G2YObtwAIrLng/PNL5bJ6qc7NbN+2rV6viyqASy97+YFDBx/dvRvAmWefc/K69Z2dXcPDI4ODg5WW8vadOwEw0VlnnY2GryAAbNu+LUtzAOtOOaVQI4rH3XXnXQCY6Zxn/VZre+e1175/6dIRAJ//whfu/ulPhoZHAOzbt+/d735PlucCrDnxpBNOOBGKgaHBSlubEwAoFJcdO7aP7tsHYGRkZP3pGwDEcfymN70JhIC5pRIDOPXkNWtOWpPn6dTURJal3mXGGGNoz6OPbH1wi/cOQKH+L9SwSfFMc/fYYXTw4MEzTz8TQCm069euOe+8Z59zztmnnbY+DhvBEStXLB/dt/vNb3pD8fNvP/5RLYSWiKred9/Gnu4uAH19vZs3b9J5S0+aJq94xaUAmPirt/6rzq9f9o+OnnLyGgDtba0/uuvfizrc/JlPFzc/8cTVe/fsUdWrr766KHnZiy/Zse3hfXv2bt/60MTE+HUf+mBRftlll4rIxz7618XP3/ntl7v59VG1Wn3BCy4EUClFAP7qz9+fZemrX3XVOeec/ZKXXHzRhRdefMmLLrrw+SefeGLxjq2trRs3bixq3sxSp+mo891/++7TEP3UU9f/4hd3792zu7O9oyj57nf/r6p657yKqn7yk58oys/acMbExBFVLaxxW7du6ezsBDAyPLxt6zadn63+5V++Upz/rLM3jI8X52ueZ699TWPaetOb3vyJTzTuOTjQv+WBTUfX9tvf+mZxaMNZG6rV6mvmr3rvn7376Lf78pe/uPAKP7/7Z3fc8f2nesHAmj//wPuK2i2qyb8elgz0v/c97wlsUCnHucuNNSpKbLM8HxoauvDC5w8Pj2zb9tA1/+dtucuXLBk444wzgSJEQkF06qmnv/vd7/LeXXTRhZ2dPSKqKsaY9vbOd77zj8bHJ84+6+wTTjhh4XErVix/17velefuOc/5ra6uHkBF1Nrgw9ffsHbN2nqWRlGUJOl733ttmiYvuOiCk9etx1HONGduOOu66z48NjZ++umnM/OLX/yS4eGRSql8xRWvVIUXX0SPv/SlL//Yxz62Z8/upUuHN5x19h3f/96lL3t5VC4NDw2tXLm8Xq9CyVgzOTG5bv36K6+8stgpW/BSak400c55weVfuS38xNOexlNTGx59dOxt51/76KsUAlCRHtsc9c1EfXw0zEKDHVONx58G8UoEIoj6x0daaZqm1gZFcOlTvSMdG4Xz2Ms2yc55E1EHT9kuj3ObOKZB9ckceI858dg+EC0yvOkTHldESSlQxBM/sbaqrsi1c1TZUzylcTtt3JAYBTsf/+3gJ7qELPTIolv7r0DztMVvBJqnuZqiEov4TcQidRZxnHjmJ6xF/IZiUeos4jixSJ1FHCcWqbOI48QidRZxnFikziKOE4vUWcRxYpE6izhOLFJnEceJReos4jixSJ1FHCcWqbOI48QidRZxnFikziKOE/8/UqzS/vvn1goAAAAASUVORK5CYII=;" vertex="1" parent="1">
          <mxGeometry x="-297.1" y="-634.75" width="124.93" height="65.75" as="geometry" />
        </mxCell>
        <mxCell id="ygvrbI2mlTMdxTGw6j8e-6" value="" style="shape=image;verticalLabelPosition=bottom;labelBackgroundColor=default;verticalAlign=top;aspect=fixed;imageAspect=0;image=data:image/png,iVBORw0KGgoAAAANSUhEUgAAAgAAAAIACAYAAAD0eNT6AAAACXBIWXMAAA7DAAAOwwHHb6hkAAAAGXRFWHRTb2Z0d2FyZQB3d3cuaW5rc2NhcGUub3Jnm+48GgAAIABJREFUeJzt3XmcHHW9/f9TvUzPvk9msu8JEEggIBEQSWIIEEUEDUFBroLLdUG4bqhcvbjLvS7XH6jcq6ICIgJXZQcTFkH2hEACIYFksu+zT89090x31fcPTX4EkjDTVd2f6q7X8z8epD51MpDU6ap3f0oCAAAAAAAAAAAAAAAAAAAAAAAAAAAAAAAAAAAAAAAAAAAAAAAAAAAAAAAAAAAAAAAAAAAAAAAAAAAAAAAAAAAAAAAAAAAAAAAAAAAAAAAAAAAAAAAAAAAAAAAAAAAAAAAAAAAAAAAAAAAAAAAAAAAAAAAAABQwy3QA5M7WrVvLOm271HQOIIgG9qbtE06Y3G06B3AoFIAC5zhOaG3rthlWSPNk6W1yNF3SBEkNkkJm0wHB1dET197OHicaCveXxqLLwqX6t9NmzdpoOhewDwWgQK1t3T7dseyPWNKHJI0znQfAgTp64trd1rX/n8PhkF1ZWXrN/BNmfc1gLGA/CkCBWbNpx+ywk7nKkd4nPuEDvvXGAiBJliVVV5T/Yv6cWZ82FAvYjwJQIF7Ztq0hNOh8z5E+Ji78gO8drADs01BT+bl3nnDMtXmOBByAC0kBWLtp2zxr0FnlSJ8Q/82AgtcV7//vZStWzzSdA8HGxcTnXtm47atynGWSRpnOAsAbmYwdGkwkH1m+fHnUdBYEFwXApxzHsda1bvuhJed74r8TUHSSqXR9dzpyr+kcCC4uLD61btO2nziW8wXTOQDkTm9/8vS/LX+ZP+cwggLgQ2tbt3xd0uWmcwDILcdx1BOPX/Pwsy/PMJ0FwUMB8JlXNm45Q5Z1tekcAPIjnbHDqYHE4y+//HKJ6SwIFgqAj6xubW22ZN0o/rsAgZJMDdbt6h28x3QOBAsXGh+JWJH/lDTCdA4A+cc8APKNAuATr2zadpIl68OmcwAwg3kA5BsFwCcsx/mG2JkRCDTmAZBPFAAfWNe6bZakM0znAGAe8wDIFwqAH4Scj4lP/wD+iXkA5AMFwLDly5dHHUdLTOcA4B/MAyAfKACGVdU1zZHUZDoHAH9hHgC5RgEwzLGsuaYzAPAn5gGQSxQAw6yQNcd0BgD+1dufPP2R5166wnQOFB8KgGGOo+mmMwDwL8dx1NvX96NlK1bPNJ0FxYUCYJDjOCFJE0znAOBvmYwdGkwkH1m+fHnUdBYUDwqAQevXr6+UxB9oAG8pmUrXd6cj95rOgeJBATAoE4tVms4AoHAwDwAvUQAMstMRPv0DGDLmAeAlCgAAFJB/zAOkHmV/ALhFAQCAAsP+APACBQAAChDvC4BbFAAAKECO46g7Hv9P5gGQLQoAABQo5gHgBgUAAAoY8wDIFgUAAAoc8wDIBgUAAAoc8wDIBgUAAIoA8wAYLgoAABQJ5gEwHBQAACgizANgqCgAAFBEmAfAUFEAAKDIMA+AoaAAAEARYh4Ab4UCAABFinkAHA4FAACKFPMAOBwKAAAUMeYBcCgUAAAocswD4GAoAAAQAMwD4I0oAAAQAMwD4I0oAAAQEMwD4PUoAAAQIMwDYB8KAAAEDPMAkCgAABA4zANAogAAQCAxDwAKAAAEFPMAwUYBAIAAYx4guCgAABBgzAMEFwUAAAIuk7FD6cTgI4884kRMZ0H+UAAAAEqkUvV2+Yv3ms6B/KEAAAAkSb19yYXMAwQHBQAAIIl5gKChAAAA9mMeIDgoAACAAzAPEAwUAADAmzAPUPwoAACAN2EeoPhRAAAAB8U8QHGjAAAADol5gOJFAQAAHBbzAMWJAgAAOCzmAYoTBQAA8JaYByg+FAAAwJAwD1BcKAAAgCFjHqB4UAAAAEPGPEDxoAAAAIaFeYDiQAEAAAwb8wCFjwIAAMgK8wCFjQIAAMgK8wCFjQIAAMga8wCFiwIAAHCFeYDCRAEAALjGPEDhoQAAAFxjHqDwUAAAAJ5gHqCwUAAAAJ5hHqBwUAAAIAcs0wEM6oknFz6+fM3lpnPg8CgAAJADlhXkCuCoM977Y+YB/I0CAAA5EAp0AWAeoBBQAAAgB8LhsOkIxjEP4G8UAADIgZIoH3wl9gfwMwoAAORAJByWFQr2YwDpH/sD9MT7rnn4hRdmmM6CA1EAACAHLEsqj5WYjuEL6UwmPBC3H2MewF8oAACQIxWlMdMRfIN5AP+hAABAjlRVlpuO4CvMA/gLBQAAcqQkGlFpSdR0DN/gfQH+QgEAgByqq6k0HcFX2B/APygAAJBDNVUVikS41r0e8wD+QAEAgByyJDXVVZmO4Tu8L8A8CgAA5FhNZYXK+ErgG/C+ANMoAACQY5YljWyqC/z7Ad4ok7FDmeTAw8wDmEEBAIA8iJVE1dxQYzqG7/QnBxqYBzCDOmrQmtYd40NWZpPpHH6UsgfVlu5WfyZlOgoOIWKFVBepUk2kQhZ/lQzZrrZOdfb0mY7hM5Yaa6qvOPWEo35qOkmQ8KfWIArAgQactO7teFrLulZqfWK76TgYoupIueZUHanzG0/TuNgI03F8z3Ec7djTqZ6+ftNRfCUSDmcqaktmzT/22JdNZwkKCoBBFID/38bkTn1zy03aOdBhOgqyFFZYHxoxXxeOmM8dgbfgOI52t3Wps5c7Aa9XFot1xAaPa543z0qbzhIEzADAuNbkTv1b6/Vc/AtcRhndtGepfrHjbtNRfM+yLLU01amxrloWg4H7sT9AflEAYFTKHtQ3t9yohM2z/mJxZ8eTerT7RdMxCkJTXbXGtTQqEgmbjuIbPfHEwr+tWLPEdI4goADAqHs6ntaugU7TMeCxG3Y/oIxs0zEKQnlZTJPHNqu+ppIHJ/+USCSuM50hCCgAMGpp5wrTEZADuwc6tSreajpGwQhZITU31GryuJGqq64I/H4BidRA49MrVh1vOkexowDAmHgmoY2pXaZjIEde6t9oOkLBiUbCamms09TxI9XSVKfyspiC2gUSti4ynaHYsfsSjGkf7DUdATnUlu4xHaFghUIh1VVVqK6qQo7tqD+VUiqVVmpwUIPpjBzHke0U9yOWcMhqMJ2h2FEAYEwsxHvSi1lM/Pf1ghWyVFFWqooy00nyy5LWmM5Q7HgEAGMaolUqseigxWpkrN50BACHQQGAMVErouMqp5iOgRw5seoI0xEAHAYFAEYtbnyn6QjIgbdXHaXRJY2mYwA4DAoAjDqmYpLm1x5nOgY8VBku1SdGLjIdA8BboADAuCtGnadjKyebjgEPlIViumrchXz6BwoABQDGxUJRfW/CpbqgaR5DgQXsqPLx+u/Jn9bsiqmmowAYAv62hS+EFdJHm8/Qe+tP0mM9q7W6b6M60r1KO7wUzM+qwxUaF2vSSdVHaVYFd3GAQkIBgK80RKt1bsMpOrfhFNNRAKCo8QgAAIAAogAAABBAFAAAAAKIAgAAQABRAAAACCAKAAAAAUQBAAAggCgAAAAEEAUAAIAAogAAABBAFAAAAAKIAgAAQABRAAAACCAKAAAAAUQBAAAggCgAAAAEEAUAAIAAogAAABBAFAAAAAKIAgAAQABRAAAACCAKAAAAAUQBAAAggCgAAAAEEAUAAIAAogAAABBAFAAAAAKIAgAAQABRAAAACCAKAAAAARQxHQA4mI50rzoGe+SYDgLkUEW4VM0ldQrzWQwGUADgGwk7pTvaHtfDXSu1Y6DddBwgLypCpZpTfaQuaJyn8aUjTMdBgFAA4Atr+7fom1tuUke613QUIK/67KQe7lqpv3W/qH8ZsVDnN50mS5bpWAgA7jvBuLWJrfrypl9y8UegZRxbN+x+QL/d/VfTURAQFAAYlbBT+vaWm5SyB01HAXzhj3sf1fL4q6ZjIAAoADDqzvYn1TbYYzoG4BuOHP1q1/2mYyAAKAAwalnXStMRAN/ZmNyp1uRO0zFQ5CgAMKY306+tqT2mYwC+9HLfZtMRUOQoADCmY5ChP+BQ2jPdpiOgyFEAYExpqMR0BMC3yqyY6QgochQAGNMQrVYsFDUdA/ClUbEG0xFQ5CgAMCZihXV85VTTMQDfiVphHV85zXQMFDkKAIxa0jSPXc+AN3hP/dtVHuIRAHKLAgCjjigbq7PqTjQdA/CNlpI6XTjiXaZjIAAoADDuM6Peq5OqjzIdAzCuKVKjb437qKrC5aajIAAoADAuYoX1jbEf1qUtZ6kiVGo6DpB3liydVjNT1065jDcCIm94GyB8IWRZOr/xNC2qO1FP967Rqr6N6kj3KmPbpqMBOVMTrdDEWLNOrp6hsTEu/MgvCgB8pTJcpgW1x2tB7fGmowBAUeMRAAAAAUQBAAAggCgAAAAEEAUAAIAAogAAABBAFAAAAAKIAgAAQABRAAAACCAKAAAAAUQBAAAggCgAAAAEEAUAAIAAogAAABBAFAAAAAKIAgAAQABRAAAACCAKAAAAAUQBAAAggCgAAAAEEAUAAIAAogAAABBAFAAAAAKIAgAAQABRAAAACCAKAAAAAUQBAAAggCgAAAAEEAUAAIAAogAAABBAFAAAAAIoYjoA8Ea242j7wF51puNKK2M6DpAz1aFyjY41qiwUMx0FAUQBgG90Z+K6de/f9HDXSnWl46bjAHkRtcKaXTlNF46Yr+llY03HQYBQAOALK+Pr9d2tt6g30286CpBXg05Gz/S+omd71+r8ptP0kRFnKGRZpmMhAJgBgHGr+lp11aYbuPgj0Bw5+uPeR3X9zrtNR0FAUABgVDyT1He23KKMbNNRAF+4s+NJPdHzsukYCAAKAIz6c/vj6s7wvB94vRt2PyBHjukYKHIUABj1cNeLpiMAvrMttVfrEztMx0CRowDAmO5Mn3YMtJmOAfjSmsRm0xFQ5CgAMKZrkFv/wKF0DPaajoAiRwGAMeVhNj8BDqUiXGo6AoocBQDG1Eer2QENOIQxJU2mI6DIUQBgTFghnVg13XQMwHdioahmV04xHQNFjgIAoy5omseuZ8AbvK/hFJWGSkzHQJGjAMCoSaUjdW7DKaZjAL4xLtakDzbNMx0DAUABgHGXNi/SgtrZpmMAxo0qadS3xn+U2RjkBS8DgnFhK6QvjTlfMyrG63e7l/ImQAROWGGdUXeCLm05U5XhMtNxEBA8fH2D5v9aWKGEPSlk23WOpQpJlbk611FN0yt/ftbXbsjV+oUoZQ9qRfw1vdTfqvZ0r2yb7VBRvKoi5ZoYa9Hba45UU6TGdBxfsaSvTp849gemcxSzwN8BaLl67oSQQu9xZJ0maY76Mv98IbclK8fXntfaNmzP7RkKTywU1cnVR+nk6qNMRwGAohbIAjDj6sUl7VbHBy1HH5N0imPsTgjj7wAAM4JVAG5bHG55pfMTHU7HVy1HY03HsSgAAABDAlMAmr81b05oTcf1ko41nWUfixkMAIAhQfgaoDXym++6PGyHHpePLv6SZFlWEH7+AAAfKuo7ABOunluaUvgWOTrXj7PkIStEAQAAGFG0BaDxmlOqUonwXZLmms5yKCHuAAAADCnOC9D/HB+NJkpvl48v/pJkWaGw6QwAgGAqygIwcmftdZLOMJ3jrYS5AwAAMKToLkCjvrngHEmfMJ1jKMJWuGgfwQAA/K2oCsCoq+c2Oo79S9M5hioUClEAAABGFFUBsBX5D8lqMp1jqELMAAAADCmaAjDm6rlTQnI+aTrHcFhiBgAAYEbR3ILOKPxFSVHTOQAAKARF8Ql0zNVn1Eu6yHQOAAAKRVEUANvKXCipwnQOAAAKRXEUAMf5oOkMAAAUkoIvAE1Xz22xpLebzgEAQCEp+AIQtULzxGt1AQAYloIvAHJ0qukIAAAUmoIvAI6so01nAACg0BR8AZA03XQAAAAKTaEXAEtSg+kQAAAUmoIuAM3/tbBcEvvpAwAwTAVdAHb3DaQkOaZzAABQaAq6AOjqR9OS+k3HAACg0BR2AXBkSWo3HQMAgEJT0AVg0rLF1VZ5lE2AAAAYpoIuAJIUqioZazoDAACFpuALgFURNR0BAICCU/gFoDomy+IpAAAAw1H4BSBsyarkLgAAAMNR8AVAkkKNZaYjAABQUIqjANSVyooUxW8FAIC8KI6rpmUp1FxhOgUAAAWjOAqApHBzuaxo0fx2AADIqeK5YlqWwmOrTacAAKAgFE8B0D9mAUJ1paZjAADge0VVACQpMr5aivGGYAAADqfoCoDCIUWn1Enh4vutAQDglaK8SlqlEUWn10sRdggEAOBgirIASJJVFlF0WgPfDAAA4CCK+upolUUUPaJBIV4YBADAAYq6AEiSSsIKT69XuKVC4okAAACSglAAJFmWpfDoKkWPbFSoqsR0nNdxTAcAAARUIArAPlZZRJFp9YpOq5flgyKQtjMDpjMAAIIpYjqACVZViaJV9XIGMrLbk7J7klJfWo6T30/kqcxgQpL5JgIACJxAFoB9rJKwwiMrFB5ZIdmO7MSglEzLSdlSxj54IXCUVtrZ4dh2hzLqk2w76wClEefWtkeayqzYyGgoXOvitwIARSHj2ImEM7B7bf+WcePu+dAnsl7IVsJSqN+xnK5IKLy1rrl044oT/nfQw6gFr6DH4iYtXVyTSZZ0mc4BAPC9tGStseQ8ajtaWpUc+OvL598e6MewFAAAQBB1SPpDxrb+e9s5N683HcYECgAAIMgyknW7HOtrm99700bTYfIpUN8CAADgDcKSc4Es++Xx91z0dT0yNzCzcRQAAACkMjnOtybERz857p4PTTIdJh8oAAAA/JMjvc1yrGcm3v2hE01nyTUKAAAAB2q0ZT007p4PLTAdJJcoAAAAvFml5Vh3jr/nopNNB8kVCgAAAAdXLse5c8KfL5hgOkguUAAAADi0RkXCt824bXHRbdtOAQAA4DAc6W195SVXmc7hNQoAAABvwXGcKyfde/E00zm8RAEAAOAtWbGMnf6e6RReogAAADAk1nnj7vrgDNMpvEIBAABgaCzLsq4wHcIrFAAAAIbMOn/MbYvLTKfwAgUAAIChqw6XxhaZDuEFCgAAAMPghJzTTWfwAgUAAIBhsBxnnukMXqAAAAAwLNbUptsWV5pO4RYFAACA4bHKY+GppkO4RQEAAGCYrFBkvOkMblEAAAAYJtuxq0xncIsCAADAMIVCYgYAAICgcZxQ2HQGtygAAAAEEAUAAIAAogAAABBAFAAAAAKIAgAAQABRAAAACCAKAAAAAUQBAAAggCgAAAAEEAUAAIAAogAAABBAFAAAAAKIAgAAQABRAAAACKCI6QDAwcRCUY2KNqg2WqlSK6pYuETlVulBf61t2epPpxS3+9We7tGegW4l7FSeE5sXC0U1uqRRLSV1KrNiioVKPFs7o4wSmQF1pHu0NdWm7kzcs7Xdqo9U6cjy8aoJl6vPTmpTarc2J3ebjpU3I0vqNal0pGrCleqzE3otsV07BtpNx0IBoADAuLJQTDMrJmlWxSRNLB2pMbEGNUVrZcnKes3dA51qTe3Sq/1b9ULfBq3r36aMMh6mNi9ihfW2quk6vmKaZlZM0rjSJlc/s+HozsS1Or5JL/Sv19+7X1JnOv+FYGbFJF3cfLqOLp/wpt/39oE2/WHPw3qoe6Vsx8l7tnyYU3WELhpxuqaVjX7Tv9uY3Knf73lYj/esNpAMhSI/f1vkyKSli2syyZIu0zkwfCOidVpQe5zmVB+pqaWjFLbCOT1fwk7pmZ61eqxnlZ7rXacBJ53T8+XSyJJ6nddwqubVzlJVuNx0HGUcWyv71usv7U9oee+rcpTbC27IsvSREQt1ftPctyw8z/S+ou9vvbWo7giFFdJnR5+jRXVz3vLXPty1Uj/Z/n8F/f+7f1mXbT775utMp3CDAoC8KbEiOq12lhbWHq+jyycqZJn5368706cHO5fr3o6ntWug00iGbDRFanRJy5k6rWaWwpY/x3c2JHfoV7vu0/Px9Tk7x0ebz9AFTfOG/Ouf73tN/77xt0VzB+jy0ecO6eK/z9+7X9J3tv4+58UseAq/AOT2Y1eO1V08o9RJh79iOgcOrzRUorPr366vjb1QC2pnq7mkTpahi/++PDPKJ+ic+lM0oaxZrYmd6s30G8vzVkKWpfc3vlNfH3eRppaNMVachqI+UqUFtbM1MdaiVf2tStoDnq5/dPkEfX7MB4b1qGNkSYP67ZTW9G/2NIsJJ1UfpY+3vHtYx4wrHaFdAx1qTe7MUaqgsu7v/sOqZ02ncIMZAORMWCG9v/FULW48TdUR87eq3yhkWXpn9UydUn207mx7QjftWaZ+n90qro1U6ktjztcJldNMRxmWd9QcrWMqJ+g/t96m5fFXPVv3ohELsppzWNI4V/d2PFPQjwIsWfqXEadndeyHR5yuZV0ruQuAA/jzPiIK3syKSfrFlCt0actZvrz4v15YIZ3XeKpumPYlnVJ9tOk4+42LNem6yZ8tuIv/PjXhSn1r/Ef0nvq3e7JebaRSMysmZXVsdaRc82pmeZLDlKPLJ2hi6cisjm0uqdP0sjEeJ0KhowDAU2WhmL40ZrH+c+LHNb50hOk4w1IXqdQ3xl2kL41ZrPJQzGiWaaWj9aOJn1JTtNZoDrfCVkiXjXqfLmya73qtyaWjXM0+nFl/ousMJi1ymX/yQb4tgGCjAMAz40tH6KeTPq0Ftcfn7etoubCg9nhdN+UyYwVmVEmjvj3ho76/czIcFzcv1HmNp7paoyZS4er46WVjNKVAL4LVkXK9o+YYV2vUufz5ofhQAOCJRXVzdN3kz2l8abPpKJ4YXdKon0z6tGZXTsnreasj5bpm4qWqjVTm9bz58PHmRTqp+qisj+/LJFxnWFT3NtdrmHB67WyVWO5GtuKZpEdpUCwoAHBtSeNcXT76XNd/QflNRahU3x7/UZ1WMzMv57Nk6fOjPqAR0bq8nC/fQpalL44+X80l2f3+WhM7XQ+xza89TmWGH+9k44xa948vNvAtALwBBQBZC1shXT76PF3ScqbpKDkTscK6cswFmlub+wGys+pPdPUJuRBUhkv1xdGLs3pEtDfdrQ2JHa7OXxaKFdww4DHlE10/jopnElrTt8mbQCgaFABkJWRZ+vKYJVpUV9iDVUMRtkL68pglmlN1RM7OURUu10eaF+ZsfT+ZWTEp60L1YOdy1+cvtGFAt8N/krS063llZHuQBsWEAoCsfLrlHM0tsE9SboQV0lVjL8zZENlFI96lmnBwhrQubTlL0Sy2f36oa6XrzYUKaRjQi+E/SXqgo6D3q0GOUAAwbBeNWKCzG7z5bnchiYWiunrchz0f0KuOlOvMAh1Oy1ZTpEYLamcP+7g+O6nHut2/4KZQhgG9GP57qX+TNqWC83ZEDB0FAMMyt2aWPjxigekYxjRFa/WlMed7+jXH99afpFIPX91bKN6f5dcC7+t0/2m2UIYBvRj+49M/DqW4xraRU6NKGnXF6PPydr6EndK2VJv2DHYqnkkq6Qy86fZvzIqqKlKuqlCZGqM1Gh9rzvmLck6onKaz69+uuzqecr2WJUvvyuKT8OG0D/ZobWKL2tI9nuzFH1FYtdFKjSsZoSllozwrP2NjIzS9bKzWJbYO67hX+jdrQ3KHJpeOyvrcZaGY5tbM1P2dz2W9Rq55M/yX1GO8EhiHQAHAkJRYEV019oM5/dSUdjJ6rnedlsdf1Yt9rdqa2jPsNcpCMU0tG60TKqdpft1xaorU5CCp9LGWRXo2vtb12wSnlY3RqJIGTzKt6d+s3+x+UKv7NuZsz/emaK2WNM7VooYTFfbgBuLcmpnDLgCS9EDHc/rMqHNcnfus+jm+LgDeDP+tUMoe9CANihEFAENycfPCnA1O7R7o1J/a/66Hu1eqJ+3urXwJO6VVfa1a1deq3+35q46tmKIPjpivY8oneBP2n2KhqP615WxdveVGV+vMrvJmo6Fb9z6i3+35q2wnty972TvYpet2/kWP9azS18de5Hq3wtlV06Rd9w77uIe6VurSlrNcPTrZNwy4PrE96zVyheE/5AMzAHhL40ubdV7jOzxftyPdqx9uv10fffWH+kv7E64v/m+UcWytiL+qL7Zer6u33KjtA22ern9S9VE63uWLemaWT3ad4462x/Sb3Q/m/OL/eqv6WvX1Lb/VoJN2tc742AjVhIc/VFnsw4AM/yEfKAA4LEuWLhv1Pk9u9+7jyNFd7U/pY6/+SEs7VyijjGdrH8pTPWv06fX/n5Z1rfB03X9pzu71rPtMKm1xdfzG1C7dsPsBV2tka23/Fv1+70Ou1rBkaXKWb7gr5mFAhv+QDxQAHNbc2lk6pnyiZ+v1Zvp19eab9LOdd6rPzu/e5El7QP+17Xb9ePsdyjjelI7pZWN1YpYbBFWGS11/pfD3ux9SxjG3wcuf255Q3OUe/aNLs5uB2DcM6Ma+YUA/YfgP+UIBwCFZsvTBxnmerbd7oFOf2/BzPd27xrM1s/Fg53J9f+utnu2MtqRpblbHNUXcveo3ZQ/q2fhaV2u4lbQH9FzvOldruPk5PNDhfojvrPo5rtfwEsN/yBcKAA7plJoZnr3db3Nyt65o/bl2ePwcPluP96zWNVtv9WRa/ujyCTqyfPywjyuPlLo675bUHl/8Jf9a0t0QnZtb8MW2MyDDf8gnCgAOaYlHn/73prt11ebfqCPd68l6Xvlb9yr9X9vjnqy1OItNbWIuh7y60nFXx3ul02WO8nD2k/zFNgzI8B/yiQKAgzqyfLymefCpKGGn9LWNv9LewS4PUnnvhl0PaE3/ZtfrnFQ1Q43R6mEdY7n845eP4cmhsF3PILjbWKiYhgEZ/kM+UQBwUKfXHufJOtdu/4u2pPZ6slYuZGTrp9v/5HqQLmRZOrU6v8NkXm5HXMiKZRiQ4T/kGwUAbxK1wjrNgzf9Pd6zWg91r/QgUW5tSu3W0k73Xw+cWj68OyYJO+XqfEF8f8ChFMMwIMN/yDcKAN7kxKojVRkuc7VGwk7pf3bc41Gi3Ltx71INuNzUpi5cNaxf35Nxt/FRU9Tdtwi84vbuieMFK0FNAAAXKElEQVTBBkaFPgzI8B9MoADgTU6omup6jTvaHtfedLcHafKjfbBHD3W5u1sRt4d3Qe91ufPhqJIGNQxz7iAXulwOd3oxHFrow4AM/8EECgDe5NgKd/vTJ+0B3d3u/k15+XZH22OuttNdnxjec+i4nXC9IdGCGm/fJJiNTak9rn4f2bz06WAKeRiQ4T+YQAHAAZoiNa7fTvfXzhXqzvR5lCh/tqX26pneV7I61nYcPdHz8rCOyTi2WpO7sjrfPuc1vkMVIXf7CbjVm+nX6r5NWR2bka2ne73ZzKhQhwEZ/oMpFAAc4OhK99v+Lut63oMkZvxq9/1ZveDmse5V2pbFtx1e7t807GNerzZSqc+NOtfVGl74495HszrurvYn1etyFuL1CnEYkOE/mEIBwAHGl7jb+W/HQHtW73f3i22pvbpp97JhHbN3sEs/33lXVufzYg+CubWz9PGWRUa/Fvh832u6t+PpYR2zObl72D/rt1Jow4AM/8EkCgAOMKa00dXxL/St9yiJOX9se1S37H14SNsE7x7o1Fc2/TrrRx4v9rV68mKiDzS+U/8x/mLVuXy5kBs/23mX7ut4Zki/dkNyh67a/BvPXwhVaMOADP/BJAoADjCmxF0BeLGv1aMkZv1u91/1lU2/0vrEwfe5T9mD+lPb4/rMhmuzuvW/T1c6rmdcvkxnn5OqjtTvpl2pT408W+NiTZ6sORwZx9ZPd/xZ39pys7Yf4p0P8UxSN+9Zpis2/Dxnu0MW0jAgw38wyV31RNEZ6XIAcKPLoTY/eSG+QZ+JX6vxpc2aXjZG9ZFqpewBbR9o16q+Vte3mvd5oPNZnVx9lCdrxUJRva/hFL2v4RSt7t+o+zqe1d+7V7ve42A4nuh5SU/0vKQpZaN1ZPlY1Ueq1ZtJaFNyl17q25jzLPuGASeXjsp6jX3DgPd3up8pOBSG/2AaBQD7hRV2tbtcxrG1M9XuYSJ/2Jzcrc3J3N1iXR5/VXsHuzzf2OeY8ok6pnyiPtVytpZ1rdD9nc/mdVvm9Ynth7yDkmsPdDynz4w6x9UaZ9XPyWkBYPgPpvEIAPuVuXgrm/SPr4Pl85Nmscg4tm7cszRn61dHynVe46n65dQv6LrJl2lR3RzFQtGcnc8P/D4MyPAf/IACgP3cPvPsd7m3fZAt63pe6xLbcn6eqWWjdfnoc3XL9Kt0+ehzNTHWkvNzmuDVMOBZORoGZPgPfkABwH5lLj8Vpjx6Jh5EtuPoFzvvHtI3D7xQGS7Voro5un7qFUV7V8CLYcB35WgYkOE/+AEFAPtZlrv/Hew8XbyK1Sv9m/Wntr/n/bzFelfArzsDMvwHv6AAAD7y69336/n4a0bOXYx3Bfy4MyDDf/ALCgDgIxnH1jXb/piz78gP1b67AjdP+6o+2fJuI/sKeMFvw4AM/8FPKACAz3Sl4/rixv/RjgHzX6ks9G8Q+G0YkOE/+AkFAPChXQOd+kLr9b76i75QZwX8NAzI8B/8hAIA+FRHuldXbvylVvtse+XXzwr8cNInNb/2ONefanPJL8OADP/BbygAgI91peP68qZf6le77svqNcW5dkz5RF05ZoluPuIrWtI0Ly/752fDD8OADP/BbygAgM/ZjqPb2x7TZeuv08t9m0zHOaiacKUuaT5DN02/Uhc2zffdHQHTw4AM/8GPKABAgdiY2qXPb7xeX2i9Xs/0vmI6zkFVhct1cfNC/WzK5zQ1R9voZsP0MCDDf/AjCgBQYF7q36RvbP6dvtB6vR7tetGXjwbGxUbop5M/oyVNc2XJMh1HktlhQIb/4Ef+uk8HYMhe6t+kl/o3qXJnqd5ZPUvnNJ6sCbFm07H2CyukS5rPVEtJna7d8RfZjtmdIk29JpjhP/gVdwCAAhfPJHVf5zP65Gs/0Wc3XKv7Op/x1aDYoro5unLMBQr74K8bb4YBh/dpnuE/+JX5P5EAPPNaYrt+uv3P+vC6H+iXu+7T9oE205EkSXNrZunzY95vOoZHw4BjhzwMyPAf/IwCABSh7kyf7mh7TJe8+kPf3BVYUHu83ttwktEM+R4GZPgPfkYBAIqcn+4K/OvIszWjYoKx80vSvZ3PuF5jqMOAXgz/3c+nf+QIBQD7OY7t6viQT6a9cXB+uCsQVkhfHL1YUSuc1/O+3tr+LXnZGdCr4b/HGf5DjlAAsF/Sdvd1slioxKMkyLV9dwU+tO67+un2P+f1FvOokgad3XBy3s53MPkYBmT4D35HAcB+CTvl6ni/bgOLQ9v3DYJ/fe2/9eWNv9Sj3fnZV+DCpnepJlyR8/McSq6HARn+QyGgAGC//kzS1fHV4XKjt3aRPUeOXuzboO9v/YMuWPudnN8VqAyX6t0u99Z3I9fDgAz/oRCwERD2y8hWyh7M+n3vYSukUbEGbU7u8TiZWaNLGnVM5UTVhCuUsFPalmzTqv5WpZ1MTs7XGK3WMRWT1BipVtqxtX2gTS/2bcjbreB9dwXu73xWMysmaVH9iTqleoaiHu/vf2bd23Rr2yPGNgi6t/MZLaw73tUa76o9Tr/adf+b7p4x/IdCQAHAAXYOdrjaTW5CrKVoCsCsism6tOVMTS8b+6Z/152J64HO5bp1zyPqd/noZJ/pZWN0cfNCHV859U3b5ybslO7ueFq37HnY9aOaodp3V+DFvg2qCVfq9LrZWlR/okaXNHqyfnNJnY6tmKLn4695st5w7RsG9HpnQIb/UCh4BIADbEvudXX8rIpJHiUx68Km+bpm4scOevGX/vH2uyWNc3X9lCs0Jtbk+nxLGufqJ5M+pRMqpx107/yyUEznN56mn025zLML8HB0Z+K6o+0xfey1H+l7W29RR7rXk3Xn1RzryTrZysUwIMN/KBQUABxg24C7AnBs5RSPkpjzgcZ36uLmhUN6iU1zSZ2umfBx1UYqsz7fBU3zdEnLmQoPYX5idEmjfjDxUlfnc8N2HP2te5U+tf6nrr9KJ0kzKsZ7kCp7Xg8DMvyHQkIBwAE2p9zdvh9d0uir18AO17hYky5pPmNYxzRGq/XZUedkdb4pZaN18YgFwzpmRLROnxj57qzO55WudFxXbbpB7YM9rtYZVdJgrMxI3g8DMvyHQkIBwAFW9210vcaC2tkeJDHj4uaFQ/ok/kbvqD46q+e+H2ycl9X55tccq6Zo7bCP81JnOq7/3XWvqzUsWTryEI9Z8sXLnQEZ/kMhoQDgAHsHu7RjoN3VGgvrTlBluNSjRPkzqqRBJ1fNyOpYS5ZOrh7esaWhEp1YfUTW5ztlmOfLhcd6Vmn3QKerNZpKzBaZtf1btDG509UaZaGYPjvqHA+G/xIM/yFvKAB4kxf7Wl0dXx6K6Zx6szu9ZeP9jacqbGX/R2JibOSwfn1LtM7V7eKxHgwfumU7jp6Jr3W1hskNgfa5z4NP3V7c+Vra9TzDf8gbCgDeZEXvq67X+EDTaaqPVHmQJj9qI5U6vdbdd8KrImXD+vV1UXc/nzqf/Hw3Jd09r66KlHuUJHteDAN6geE/5BMFAG/yTO8rirvcFbA8FNMnW97jUaLcu3jEgqw3QNqnMx0f1q8PufzjF7b88fKlPjvh6vjykPnHRV4NA7rB8B/yjQKANxlw0nqsZ5XrdebWztJpb/HGND8YGxuhM4f4fvfDWZ9w/7W4guRyIz9/1BhvhgHdYPgP+UYBwEE91Pm8J+tcMfr9RjauGaqwFdLlo96X1ST+6zly9LjhT5Bwx4vXBGeLnf9gAgUAB/Vy/2a1upyMlv7xKOA7Ez6qOoPf9T6ci0ecrmM82L3wmd5XtHewa1jHOLJdndPtIwSvhFwMTkqubyB4youdAbPBzn8wwR9/g8B3HDm6de8jnqw1qqRB351wiWrC/ioBp1TP0PmNcz1Z6469jw/7mJTL1+7W+KRU1UXcTfEnM+aH7/YxNQzI8B9MoADgkB7vWa1tKXdbA+8zuXSUfjr50xpV0uDJem7NqTpCXx37QYU8GKRbl9im1f3D30CpP+PupT7jYk2+eP3yRBcv05GkfsfdwKmXTAwDMvwHUygAOCTbcfQHj+4CSNLIknr9ZNKndHzlNM/WzMb82uP0H+Mv9uz1trfufTir49oGu12dtywU0wmGf5axUFRzKrPbzGiftgF3Pwev5XsYkOE/mEIBwGE91LVSL/dt8my92kilvjP+o/pEy3tUFop5tu5QlFgRXT7qXF05ZonCHv2vvz6xXU/1vJLVsb2ZfnVn+lyd/8IRCzy5i5Gt99afpGqX3+N3+wIqr+VzGJDhP5hEAcBhOXJ07c47lXEynq0Zsiy9v/Ed+uW0z2t+7XGudt8bquMrp+m6yZdpUf0cT9e9cc9SOS7G2DYmdrk6/9Sy0bqwaXgvE/LKlLLR+vCI012t4cjRxqS7n0Eu5GsYkOE/mEQBwFvamNypO9uf9HzdpkiNrhyzRL+c+nktqjtR5R7fEbBkaWbFJP1gwsf0vQmXaHxps6frP9u7Vs/0utsGd1XfBtc5LhwxX0ua5g3p9cVeOaJsrL49/iOuN0/amto77A2U8iFfw4AM/8Ekbx6Couj9ds9fdVzVVE2MtXi+9uiSRl0++jz968iz9XTvK1oeX6cX4q3aMzj8l8xErbCmlI3RCZVTtaD2eLWU1HmeV/rHZkm/2Hm363VW9m3QxS7XsGTpkuYzdGzlJP1214Nal9jmOteh1IQr9YGmU3VuwymezFC84EEByoV9w4AL69xtD304DP/BNAoAhiRlD+q7W27RtZM/k7Nn97FQVKfVzNy/e2BPul/bBvZqx0C7UvaA4vbBp8WrwxWqDperMVqtyaWjFMnDZPxvdj/o+q2JkvRK/xbtHuhUswdFZXbFVM2ePFU7Btq1pn+zutJxZVzuNbBPVbhMY2PNOqpsnKePbB7tftGztbx2b+czOS0ADP/BNAoAhmxrao+u23GnvjTm/LycrzpSrqMi43VU+fi8nG+oVsbX6y/tf/dkLUeOHupeqQ81zfdkPekf+y745euWh7NjoF1r+jabjnFI+4YBJ7v8muPBMPwHP2AGAMOyrOt5zzYIKkQd6V791/bbZDve7V93Z/uTGnC5KVAh+nP7310NUOZDroYBGf6DH1AAMGy/3f1X3d9pZstUkwactK7efKPaB3s8XbcrHdeyzhWerul3nem4HuxcbjrGW8rVMCDDf/ADCgCGzZGja3f8WU/2rDEdJW8yTkbf33qL1iW25mT93+1Z6voVzIXkht33F8Qn4FzsDMjwH/yCAoCsZBxb39lys5Z1efPWQD+zHUc/2f5/OS08Xem4bt6zNGfr+8kr/Zu11KO3TeaD1zsDMvwHv6AAIGsZ2frhttv1x7ZHTUfJmYyT0Y933KGleSg6d3Y8qefjr+X8PCYl7JR+uP0O3z/7fz0vdwZk+A9+QgGAK44c3bDrAf1sx51Ke7hboB8k7JSu3nKTlubp+bztOLpm2x89nzHwC0f/uJPi1Qum8smrYUCG/+AnFAB44q6Op3R56889+W68H+wYaNcVG36uZ13u9DdcXem4vrbp14pnEnk9bz78ZveD+lv3KtMxsuLVMCDDf/ATCgA8sz6xXZ9df60e7fLv5i5D8Wj3i7psw7XGBrU2pXbr6s2/U7/t7nXBfnJ722P6495HTcfImhfDgAz/wW8oAPBUn53U97f9QV/d9GttH2gzHWdYujN9+sG2W/X9rX8wPpG/un+TPr/hF2or8McBjhzdtGeZfrXrPtNRXHM7DMjwH/yGAoCceD7+mj752k/02z0Pqu8QW/j6RcaxdXf707r01R/pka4XTMfZb2Nql67Y8DOt7t9kOkpW+uykvrvlFt28Z5npKJ5Y279F6xPbszq2OxNn+A++k/tN03Oo7uIZpU46/BXTOXBwthy91LdJd7U/pa50XJPLRqssVGI61n624+jx3tX67tZbtKxrhQYc/w1n9dspPdS5UrZsHVk+Pi+vTvbCc73r9O+bf6tXEltMR/FURzquebWzhn3c7/Ys1Ut9G3OQCOZY93f/YVVB39bhXQDIuYSd0p/bn9D9nc9pQe1snV47W0eUjzOWJ55JamnXCt3d/lRBPKbIKKOb9zykh7pW6uMti3RS1QyFrPy9+nc4tqb26Ne7H9BTRbpJ1NO9a3Rf57NaVHfikI95vu813dn+RA5TAdmhACBvkvaA7ul4Wvd0PK3RJY16V91svb3qCE2Mjcz5BW3ASeu53nV6rHuVnupdU5Bfxdo50KFvbblZ40ub9YGGd+rUmqNz9mbG4XDk6KX+zfpL+9/1ZM/Lnr4nwY+u2/EXWbJ0Vt3b3vLXPte7Tt/deosyjjdvZQS85M+PEUM0aenimkyypMt0DrhTE67QzIpJmlkxSRPLRmpcrFE14UpXa3al42pN7tLaxBat6mvVmv7NBXnRP5xYKKqTqo7SCZXTNLNikievFB6qhJ3S6r6NeqFvgx7vfkl7Bjvzdm6/OLn6KH14xOmaVDryTf9u50CHbtv7qB7oeq7oC1FwWZdtPvvm60yncIMCAF+qDJdpTKxJ1eFylYVKVBEqU1m4RJGDjK302gnZstU12Ke2dLf2DnSrOxM3kNqsqnC5Rsca1RytVUWoTBXhmEIezfn2O0klMwNqT/do+0C79g52cWH7p/GlIzS1dKxqImWKZ5JqTe7UhuQOfj5Fr/ALAI8A4EvxTEJr+4trgCzXejP9Wtu/RWvFzy2fNif3aHNyj+kYwLAVxkgxAADwFAUAAIAAogAAABBAFAAAAAKIAgAAQABRAAAACCAKAAAAAUQBAAAggCgAAAAEEAUAAIAAogAAABBAFAAAAAKIAgAAQABRAAAACKCCLgDR/irbdAYAQAA5TsFffwq6AKxL9fZLckznAAAEiyOn13QGtwq6AOj82zOS+k3HAAAES8gKUQB8YKvpAACAYHGkLaYzuFXwBcCSXjWdAQAQLKV2yWumM7hV8AVAll4wHQEAECjr151zA48ATHPs0N9MZwAABMojpgN4oeALQCaZfEpS3HQOAEAwOI61zHQGLxR8Adh2/u0JOfqL6RwAgEDoS8Wse02H8ELBFwBJchzrRtMZAADFz7F0++4zbuozncMLRVEAtpxz81LJWmk6BwCgqDm2pR+bDuGVoigAkmTJucZ0BgBA8XIs3bXt3b9fbTqHV4qmAGx6z+9vcxw9ZjoHAKAoDYQz1pWmQ3ipaAqALDmWk7lCUtp0FABAcXGkH2085+Z1pnN4qXgKgKTN59y60pK+YToHAKCorCgJd3zTdAivFVUBkKRNK6ZeI+l+0zkAAEWh0w6nl6xfdH/KdBCvWaYD5MKouz9RHlXfMkknmc4CAChYSduyFm59z82Pmw6SC0V3B0CSdpz9v/2RwdD7JGuV6SwAgIKUcBwtLtaLv1SkdwD2abptcWVFefRPjmOdbjoLAKBgdNmW9d5ivvhLRV4AJEmPzI1MiI/5d0fO11WkdzwAAJ5ZkbGtC7adc/N600FyrfgLwD+Nv+eid0vOdXI0wXQWAIDfOCk5+lFlcvCbL59/+4DpNPkQmAIgSWNuW1wWKot+2ZL1b5JqTOcBABjnSM6d4VDkytZ33/iq6TD5FKgCsM+U+y6sHrCdT8mxLrWkqabzAADyrkfSHY5j/3jLe//wsukwJgSyALzehHs/PMexM++WQvMk+22SFTOdCQCQE+ssx/qbbTlL7cTAvdvOvz1hOpBJgS8AB7htcXhceXR82LGmZCynRo5VK8vhZwQABchyrLhtWfGwZW8ZsCtf3XH2//abzgQAAAAAAAAAAAAAAAAAAAAAAAAAAAAAAAAAAAAAAAAAAAAAAAAAAAAAAAAAAAAAAAAAAAAAAAAAAAAAAAAAAAAAAAAAAAAAAAAAAAAAAAAAAAAAAAAAAAAAAAAAAAAAAAAAAAAAAAAAAAAAAAAAAAAAAAAAAAAAQLb+H5mM75202YbjAAAAAElFTkSuQmCC;" vertex="1" parent="1">
          <mxGeometry x="-113" y="-644" width="85.5" height="85.5" as="geometry" />
        </mxCell>
        <mxCell id="ygvrbI2mlTMdxTGw6j8e-7" value="&lt;font style=&quot;font-size: 26px;&quot;&gt;&lt;b&gt;Data Source&lt;/b&gt;&lt;/font&gt;" style="text;html=1;align=center;verticalAlign=middle;whiteSpace=wrap;rounded=0;fontColor=#1ba1e2;" vertex="1" parent="1">
          <mxGeometry x="-259.63" y="-819.5" width="202.5" height="30" as="geometry" />
        </mxCell>
      </root>
    </mxGraphModel>
  </diagram>
</mxfile>
